<svg width="111" height="111" viewBox="0 0 111 111" fill="none" xmlns="http://www.w3.org/2000/svg">
<g clip-path="url(#clip0_254_5987)">
<path d="M94.7466 94.8428C116.421 73.2999 116.421 38.372 94.7466 16.8291C73.0725 -4.71377 37.9319 -4.71377 16.2578 16.8291C-5.4163 38.372 -5.4163 73.2999 16.2578 94.8428C37.9319 116.386 73.0725 116.386 94.7466 94.8428Z" fill="#FCE8E3"/>
<path d="M70.3146 48.5723H40.9539V81.5402H70.3146V48.5723Z" fill="#E2988F"/>
<path d="M103.066 84.496C87.3961 77.5486 70.3146 75.0879 70.3146 75.0879C62.4798 83.2113 47.874 83.3299 40.9539 75.0879C40.9539 75.0879 23.8724 77.5486 8.20271 84.496C17.9465 100.387 35.5451 111.011 55.6392 111.011C75.7333 111.011 93.3319 100.397 103.076 84.496H103.066Z" fill="white"/>
<path d="M73.5062 75.6211V108.075C85.9146 103.885 96.3544 95.4355 103.066 84.4857C91.5024 79.3567 79.1735 76.6686 73.5062 75.6211Z" fill="#F4BA5D"/>
<path d="M37.7026 75.6309C32.0055 76.6982 19.7263 79.3763 8.20271 84.4856C14.9041 95.4156 25.314 103.855 37.7026 108.055V75.6309Z" fill="#F4BA5D"/>
<path d="M55.2216 84.9505C55.1321 84.9505 55.0327 84.9505 54.9432 84.9505C47.3569 84.8715 40.9539 81.551 37.3844 75.829L38.0208 75.4337C41.451 80.9284 47.6254 84.1204 54.9532 84.1995C62.5792 84.2686 69.5987 80.9185 73.198 75.4238L73.8243 75.829C70.1356 81.462 63.0266 84.9407 55.2216 84.9407V84.9505Z" fill="#EABFB9"/>
<path d="M84.3934 31.0112C82.7727 27.157 79.4618 29.0545 79.4618 29.0545C81.3808 11.5526 72.4224 0 55.6392 0C38.856 0 29.8976 11.5526 31.8066 29.0545C31.8066 29.0545 28.4957 27.1669 26.875 31.0112C25.2544 34.8555 28.2173 43.8881 30.0468 46.7639C31.8762 49.6298 34.6502 48.4241 34.6502 48.4241C34.6502 48.4241 35.3263 55.0256 36.1714 57.269C37.0166 59.5123 46.5914 69.8098 49.4051 71.3811C53.0939 73.5454 58.5425 73.5454 61.8534 71.3811C64.6671 69.8098 74.2419 59.5123 75.0871 57.269C75.9322 55.0256 76.5984 48.3056 76.5984 48.3056C76.5984 48.3056 79.3823 49.6397 81.2217 46.7639C83.0511 43.898 86.0141 34.8654 84.3934 31.0112Z" fill="#E2988F"/>
<path d="M55.7883 73.3475C53.4816 73.3475 51.1252 72.7941 49.2262 71.6873C47.516 70.7287 43.5986 66.835 40.6854 63.6133L41.2422 63.1191C44.2151 66.3902 48.043 70.1653 49.604 71.0449C53.1734 73.1301 58.4729 73.14 61.6645 71.0548C63.2453 70.1653 67.0733 66.3902 70.0461 63.1191L70.6029 63.6133C67.6798 66.835 63.7624 70.7287 62.0522 71.6873C60.362 72.7941 58.095 73.3475 55.7883 73.3475Z" fill="#C46966"/>
<path d="M34.5576 44.2553L33.8166 44.3379L34.282 48.4627L35.0231 48.38L34.5576 44.2553Z" fill="#C46966"/>
<path d="M76.6567 44.2477L76.2341 48.2578L76.9757 48.335L77.3984 44.3249L76.6567 44.2477Z" fill="#C46966"/>
<path d="M29.0425 39.6689C28.8835 39.1056 27.571 34.0853 29.3905 32.7116C29.9871 32.3163 30.4842 32.3559 30.7925 32.4646C31.7171 32.761 32.1844 33.9074 32.2341 34.0359L31.5382 34.3027C31.4387 34.0458 31.0609 33.3342 30.5638 33.1761C30.3351 33.1069 30.0865 33.1465 29.8181 33.3243C28.7642 34.1149 29.2215 37.5244 29.7584 39.4811L29.0425 39.6788V39.6689Z" fill="#C46966"/>
<path d="M82.2358 39.6684L81.52 39.4707C82.0569 37.514 82.5142 34.1046 81.4404 33.3041C81.1919 33.146 80.9433 33.0966 80.7146 33.1657C80.1181 33.3634 79.7402 34.2825 79.7402 34.2923L79.0443 34.0255C79.094 33.897 79.5613 32.7605 80.4859 32.4542C80.7942 32.3554 81.2913 32.3158 81.868 32.6914C83.7074 34.0749 82.3949 39.0952 82.2358 39.6585V39.6684Z" fill="#C46966"/>
<path d="M34.1829 38.2551C39.1642 38.2847 35.3959 22.3048 39.3034 18.4308C41.2919 16.4642 70.0461 16.5433 71.9551 18.4308C75.8626 22.2949 72.0943 38.2748 77.0756 38.2551C76.7276 34.559 76.7177 30.5171 79.4519 29.0545C81.3708 11.5526 72.4224 0 55.6392 0C38.856 0 29.8976 11.5526 31.8066 29.0545C34.0238 30.4874 34.5309 34.391 34.1829 38.2551Z" fill="#4C224B"/>
<path d="M55.6392 43.5518C55.6392 43.5518 43.8372 43.2948 43.3501 51.1316H67.9283C67.4411 43.2948 55.6392 43.5518 55.6392 43.5518Z" fill="#4C224B"/>
</g>
<defs>
<clipPath id="clip0_254_5987">
<rect width="111" height="111" fill="white"/>
</clipPath>
</defs>
</svg>
