<svg width="81" height="81" viewBox="0 0 81 81" fill="none" xmlns="http://www.w3.org/2000/svg">
<g clip-path="url(#clip0_259_6908)">
<path d="M79.9156 50.2695C85.0537 28.8964 71.5713 7.4807 49.8019 2.43619C28.0325 -2.60832 6.2197 10.6286 1.08165 32.0017C-4.05639 53.3748 9.42598 74.7906 31.1954 79.8351C52.9648 84.8796 74.7776 71.6426 79.9156 50.2695Z" fill="#FCE8E3"/>
<path d="M48.111 52.9837C50.8753 52.8769 53.6106 52.6489 56.2951 52.2785C61.3377 51.5804 65.8361 50.341 68.1941 45.5184C70.5957 40.3397 67.8458 32.5539 65.1468 27.7242C63.4635 24.7181 61.7803 21.7548 60.5976 18.5208C58.9506 14.0331 57.7317 9.20341 54.2564 5.66309C54.1258 5.52775 53.9879 5.3924 53.85 5.26418C50.2659 1.90194 45.4337 0 40.4782 0C33.2808 0 26.3228 4.14581 23.1957 10.5426C21.0554 14.9235 20.3298 19.8101 18.2765 24.2338C16.1216 28.8711 13.5677 33.3802 12.6898 38.4592C12.1239 41.7359 13.0308 45.0412 15.3743 47.4631C18.204 50.3979 21.955 51.6232 25.8585 52.1574C33.0922 53.1476 40.6596 53.2615 48.1182 52.9766L48.111 52.9837Z" fill="#6B4811"/>
<path d="M50.0119 36.002H31.0389V59.7656H50.0119V36.002Z" fill="#E2988F"/>
<path d="M75.348 61.5605C66.4165 57.8777 50.128 55.0996 50.128 55.0996C43.8738 60.2712 35.9653 60.2356 31.0461 55.0996C31.0461 55.0996 14.5472 57.5002 5.23843 60.6986C11.8917 72.3026 24.2985 80.3021 38.6716 80.9432C39.3173 80.9646 39.9558 80.986 40.6088 80.986C55.3882 80.9646 68.3029 73.1716 75.3552 61.5534L75.348 61.5605Z" fill="white"/>
<path d="M27.1862 55.7188C21.7446 56.6305 11.7393 58.4684 5.23119 60.7122C11.1952 71.1124 21.7736 78.6062 34.2458 80.5152C34.2458 80.5152 28.0496 69.5239 27.1862 55.7188Z" fill="#94A5E4"/>
<path d="M53.8138 55.7188C59.2554 56.6305 69.2607 58.4684 75.7688 60.7122C69.8048 71.1124 59.2264 78.6062 46.7542 80.5152C46.7542 80.5152 52.9504 69.5239 53.8138 55.7188Z" fill="#94A5E4"/>
<path d="M40.5 7.22266C28.2673 7.2369 25.4884 16.2266 25.7424 25.2804C25.7424 31.8055 25.2708 33.9211 25.8875 35.5381C26.2285 37.839 30.9881 49.5712 40.4927 49.5712C49.9974 49.5712 54.3507 38.4587 55.1923 35.5381C55.809 33.9211 55.2504 31.8055 55.2504 25.2804C55.5043 16.2266 52.7255 7.2369 40.4927 7.22266H40.5Z" fill="#E2988F"/>
<path d="M40.5 49.8408C37.2423 49.8408 33.4477 47.9958 30.8357 45.1394L31.242 44.7832C33.7524 47.5328 37.3874 49.3066 40.5 49.3066C43.6126 49.3066 47.3709 47.4972 49.8087 44.7975L50.2151 45.1536C47.6829 47.9602 43.7795 49.8479 40.5 49.8479V49.8408Z" fill="#C46966"/>
<path d="M26.0181 26.1489C26.0181 26.1489 23.515 23.2568 20.9393 24.9451C18.3636 26.6404 20.8667 36.2499 26.0181 34.5545C31.1695 32.8591 26.0181 26.1489 26.0181 26.1489Z" fill="#E2988F"/>
<path d="M55.0327 26.1489C55.0327 26.1489 57.5358 23.2568 60.1115 24.9451C62.6872 26.6404 60.1841 36.2499 55.0327 34.5545C49.8813 32.8591 55.0327 26.1489 55.0327 26.1489Z" fill="#E2988F"/>
<path d="M25.3332 30.2797L24.7943 30.3535L25.4257 34.7982L25.9646 34.7244L25.3332 30.2797Z" fill="#C46966"/>
<path d="M55.6355 30.2852L55.2145 34.7324L55.7563 34.7819L56.1773 30.3347L55.6355 30.2852Z" fill="#C46966"/>
<path d="M22.2307 29.952C21.6793 28.5059 21.6285 27.4588 22.1001 26.8319C22.5282 26.2549 23.2247 26.2834 23.2537 26.2834L23.2247 26.8177C23.2247 26.8177 22.7894 26.8034 22.5355 27.1525C22.296 27.473 22.1437 28.1925 22.7459 29.7668L22.238 29.952H22.2307Z" fill="#C46966"/>
<path d="M59.0304 29.9527L58.5226 29.7675C59.1248 28.1932 58.9651 27.4809 58.733 27.1603C58.479 26.8113 58.0655 26.8255 58.0437 26.8255L58.0147 26.2912C58.0147 26.2912 58.733 26.2628 59.1683 26.8397C59.6327 27.4666 59.5891 28.5137 59.0304 29.9598V29.9527Z" fill="#C46966"/>
<path d="M24.1099 24.7315C26.3881 20.7352 37.1915 21.2624 40.5218 12.1373C43.7432 22.5517 53.2696 19.5029 57.4778 25.0734C57.4778 25.0734 55.468 4.08789 40.5218 4.08789C25.5755 4.08789 24.1099 24.7315 24.1099 24.7315Z" fill="#6B4811"/>
</g>
<defs>
<clipPath id="clip0_259_6908">
<rect width="81" height="81" fill="white"/>
</clipPath>
</defs>
</svg>
