<svg width="81" height="81" viewBox="0 0 81 81" fill="none" xmlns="http://www.w3.org/2000/svg">
<g clip-path="url(#clip0_259_6948)">
<path d="M40.5 81.0005C62.8675 81.0005 81 63.2776 81 41.4153C81 19.553 62.8675 1.83008 40.5 1.83008C18.1325 1.83008 0 19.553 0 41.4153C0 63.2776 18.1325 81.0005 40.5 81.0005Z" fill="#FCE8E3"/>
<path d="M64.0802 38.2372C66.9461 21.9407 60.0825 1.22624 41.1965 0.0419477C35.1745 -0.333906 29.2903 1.82903 26.2502 6.00596C15.8314 10.0198 14.9535 27.9048 16.1216 34.0602C19.314 50.9382 3.92518 48.0307 7.82862 63.8732L39.9921 62.1429H41.2255L72.8158 62.54C75.4786 50.5907 62.7742 51.3921 64.073 38.2443L64.0802 38.2372Z" fill="#4C224B"/>
<path d="M49.9683 36.2012H30.9953V59.8587H49.9683V36.2012Z" fill="#E2988F"/>
<path d="M75.3044 61.6469C66.373 57.9806 50.0844 55.2148 50.0844 55.2148C43.8302 60.3633 35.9218 60.3279 31.0026 55.2148C31.0026 55.2148 14.5036 57.6047 5.19489 60.7888C11.8481 72.341 24.255 80.3048 38.6281 80.9431C39.2738 80.9644 39.9123 80.9856 40.5653 80.9856C55.3447 80.9644 68.2594 73.2062 75.3117 61.6398L75.3044 61.6469Z" fill="#F4BA5D"/>
<path d="M57.2746 33.3438C56.5708 33.3438 55.9976 34.3437 55.9976 35.5705C55.9976 36.7973 56.5708 37.7973 57.2746 37.7973C57.9784 37.7973 58.5515 36.7973 58.5515 35.5705C58.5515 34.3437 57.9784 33.3438 57.2746 33.3438ZM57.2746 36.8257C56.7885 36.8257 56.3967 36.1378 56.3967 35.2939C56.3967 34.45 56.7885 33.7622 57.2746 33.7622C57.7607 33.7622 58.1525 34.45 58.1525 35.2939C58.1525 36.1378 57.7607 36.8257 57.2746 36.8257Z" fill="white"/>
<path d="M22.3468 35.5705C22.3468 36.7973 22.92 37.7973 23.6238 37.7973C24.3275 37.7973 24.9007 36.7973 24.9007 35.5705C24.9007 34.3437 24.3275 33.3438 23.6238 33.3438C22.92 33.3438 22.3468 34.3437 22.3468 35.5705ZM22.7459 35.2868C22.7459 34.4429 23.1376 33.7551 23.6238 33.7551C24.1099 33.7551 24.5017 34.4429 24.5017 35.2868C24.5017 36.1307 24.1099 36.8186 23.6238 36.8186C23.1376 36.8186 22.7459 36.1307 22.7459 35.2868Z" fill="white"/>
<path d="M40.4637 7.55078C28.231 7.56496 25.4521 16.5145 25.7061 25.5279C25.7061 32.0238 25.6625 36.8177 26.2792 38.4204C26.896 40.0231 31.1839 49.6889 40.4564 49.7102C49.7289 49.696 54.0169 40.0302 54.6336 38.4204C55.2503 36.8106 55.214 32.0238 55.214 25.5279C55.468 16.5145 52.6891 7.56496 40.4564 7.55078H40.4637Z" fill="#E2988F"/>
<path d="M40.4637 49.9795C36.8287 49.9795 33.5492 48.5257 30.7123 45.6891L31.1041 45.3203C33.8322 48.0577 36.9811 49.4476 40.4637 49.4547C43.8883 49.4547 46.9936 48.1002 49.6926 45.4551L50.0772 45.8309C47.2766 48.5824 44.0406 49.9795 40.4637 49.9866V49.9795Z" fill="#C46966"/>
<path d="M26.243 25.2235C26.243 25.2235 23.7834 21.6848 21.2585 23.7555C18.7336 25.8262 21.1932 37.5699 26.243 35.4992C31.2928 33.4284 26.243 25.2235 26.243 25.2235Z" fill="#E2988F"/>
<path d="M54.7279 25.2235C54.7279 25.2235 57.1875 21.6848 59.7124 23.7555C62.2373 25.8262 59.7777 37.5699 54.7279 35.4992C49.6781 33.4284 54.7279 25.2235 54.7279 25.2235Z" fill="#E2988F"/>
<path d="M25.8373 31.8181L25.2947 31.8574L25.5827 35.6552L26.1254 35.6159L25.8373 31.8181Z" fill="#C46966"/>
<path d="M55.1398 31.4106L54.8196 35.6113L55.3623 35.6508L55.6824 31.4501L55.1398 31.4106Z" fill="#C46966"/>
<path d="M22.5137 29.834C21.9333 27.9477 21.926 26.6357 22.4992 25.9408C22.92 25.4231 23.5077 25.4514 23.5295 25.4514L23.4932 25.9833C23.4932 25.9833 23.1594 25.9691 22.9127 26.2812C22.6661 26.5932 22.3468 27.4584 23.0288 29.6851L22.5064 29.8411L22.5137 29.834Z" fill="#C46966"/>
<path d="M58.6604 29.8335L58.138 29.6775C58.82 27.4508 58.5081 26.5927 58.2541 26.2736C58.0074 25.9615 57.6882 25.9757 57.6737 25.9757L57.6447 25.4439C57.6447 25.4439 58.2469 25.4084 58.6749 25.9332C59.2481 26.6352 59.2409 27.9472 58.6604 29.8265V29.8335Z" fill="#C46966"/>
<path d="M24.7048 36.1512C24.6178 36.1512 24.5234 36.137 24.4436 36.1228C24.4219 36.1228 24.4001 36.1015 24.3856 36.0873C24.2332 36.527 23.9575 36.8249 23.6383 36.8249C23.1522 36.8249 22.7604 36.137 22.7604 35.2931C22.7604 34.4492 23.1522 33.7684 23.631 33.7613C23.9212 33.7258 23.8487 33.3358 23.631 33.35C22.9272 33.35 22.3541 34.3499 22.3541 35.5767C22.3541 36.8036 22.9272 37.8035 23.631 37.8035C24.2187 37.8035 24.7121 37.1014 24.8645 36.1583C24.8137 36.1583 24.7629 36.1583 24.7048 36.1583V36.1512Z" fill="white"/>
<path d="M57.2819 33.3438C57.0642 33.3368 56.9916 33.7268 57.2819 33.7552C57.768 33.7552 58.1525 34.443 58.1525 35.2869C58.1525 36.1308 57.7607 36.8187 57.2746 36.8187C57.0062 36.8187 56.7667 36.5989 56.6071 36.2585C56.5636 36.2939 56.52 36.3294 56.4692 36.3649C56.3604 36.4287 56.2516 36.4925 56.1355 36.5563C56.3459 37.2868 56.774 37.7974 57.2746 37.7974C57.9784 37.7974 58.5516 36.7974 58.5516 35.5706C58.5516 34.3438 57.9856 33.3509 57.2746 33.3438H57.2819Z" fill="white"/>
<path d="M25.6263 24.5002C25.5102 18.1674 30.3496 14.877 30.3496 14.877C34.7028 22.3373 46.7034 24.869 57.6664 21.1672C57.6664 21.1672 56.5998 3.24677 39.4769 4.29632C22.354 5.34587 25.6335 24.4931 25.6335 24.4931L25.6263 24.5002Z" fill="#4C224B"/>
</g>
<defs>
<clipPath id="clip0_259_6948">
<rect width="81" height="81" fill="white"/>
</clipPath>
</defs>
</svg>
