<svg width="81" height="81" viewBox="0 0 81 81" fill="none" xmlns="http://www.w3.org/2000/svg">
<g clip-path="url(#clip0_259_6831)">
<path d="M69.1394 69.2105C84.9557 53.4901 84.9557 28.0021 69.1394 12.2816C53.3232 -3.43884 27.68 -3.43883 11.8638 12.2816C-3.95246 28.0021 -3.95246 53.4901 11.8638 69.2105C27.68 84.931 53.3232 84.931 69.1394 69.2105Z" fill="#FCE8E3"/>
<path d="M51.3106 35.4453H29.8853V59.503H51.3106V35.4453Z" fill="#E2988F"/>
<path d="M75.2102 61.6584C63.7756 56.5886 51.3107 54.793 51.3107 54.793C45.5934 60.7209 34.9351 60.8074 29.8853 54.793C29.8853 54.793 17.4204 56.5886 5.98578 61.6584C13.0961 73.2545 25.9383 81.0069 40.6016 81.0069C55.2649 81.0069 68.1071 73.2617 75.2174 61.6584H75.2102Z" fill="white"/>
<path d="M53.6396 55.1816V78.8643C62.6945 75.8066 70.3127 69.6408 75.2101 61.6504C66.772 57.9076 57.7753 55.9461 53.6396 55.1816Z" fill="#5C6EC7"/>
<path d="M27.5127 55.1895C23.3554 55.9683 14.3949 57.9226 5.98578 61.651C10.876 69.627 18.4724 75.7856 27.5127 78.8505V55.1895Z" fill="#5C6EC7"/>
<path d="M40.2968 61.991C40.2315 61.991 40.159 61.991 40.0937 61.991C34.5577 61.9333 29.8852 59.5102 27.2805 55.3347L27.7449 55.0463C30.248 59.0559 34.7536 61.3852 40.1009 61.4429C45.6659 61.4934 50.7882 59.0487 53.4147 55.0391L53.8718 55.3347C51.18 59.4453 45.9924 61.9838 40.2968 61.9838V61.991Z" fill="#EABFB9"/>
<path d="M61.5844 22.6298C60.4017 19.8173 57.9857 21.2019 57.9857 21.2019C59.386 8.43029 52.8488 0 40.6016 0C28.3544 0 21.8172 8.43029 23.2102 21.2019C23.2102 21.2019 20.7942 19.8245 19.6115 22.6298C18.4289 25.4351 20.591 32.0264 21.926 34.125C23.261 36.2163 25.2853 35.3365 25.2853 35.3365C25.2853 35.3365 25.7787 40.1538 26.3954 41.7909C27.0121 43.4279 33.9991 50.9423 36.0524 52.0889C38.7442 53.6683 42.7202 53.6683 45.1362 52.0889C47.1895 50.9423 54.1766 43.4279 54.7933 41.7909C55.41 40.1538 55.8961 35.25 55.8961 35.25C55.8961 35.25 57.9276 36.2236 59.2699 34.125C60.6049 32.0336 62.767 25.4423 61.5844 22.6298Z" fill="#E2988F"/>
<path d="M40.7104 53.5225C39.0271 53.5225 37.3076 53.1187 35.9218 52.311C34.6738 51.6115 31.8152 48.7701 29.6893 46.4192L30.0956 46.0586C32.265 48.4456 35.0584 51.2004 36.1975 51.8422C38.8022 53.3639 42.6694 53.3711 44.9984 51.8495C46.152 51.2004 48.9453 48.4456 51.1147 46.0586L51.521 46.4192C49.3879 48.7701 46.5293 51.6115 45.2813 52.311C44.0479 53.1187 42.3937 53.5225 40.7104 53.5225Z" fill="#C46966"/>
<path d="M25.2176 32.2932L24.6769 32.3535L25.0166 35.3635L25.5573 35.3032L25.2176 32.2932Z" fill="#C46966"/>
<path d="M55.9386 32.2866L55.6302 35.2129L56.1714 35.2692L56.4798 32.3429L55.9386 32.2866Z" fill="#C46966"/>
<path d="M21.1932 28.9459C21.0771 28.5349 20.1194 24.8714 21.4471 23.869C21.8825 23.5805 22.2452 23.6094 22.4702 23.6887C23.1449 23.9051 23.4859 24.7416 23.5222 24.8354L23.0143 25.0301C22.9418 24.8426 22.6661 24.3233 22.3033 24.2079C22.1364 24.1575 21.955 24.1863 21.7591 24.3161C20.99 24.893 21.3238 27.381 21.7156 28.8089L21.1932 28.9531V28.9459Z" fill="#C46966"/>
<path d="M60.0099 28.9465L59.4875 28.8022C59.8793 27.3744 60.2131 24.8864 59.4295 24.3022C59.2481 24.1869 59.0667 24.1508 58.8998 24.2013C58.4645 24.3455 58.1888 25.0162 58.1888 25.0234L57.6809 24.8287C57.7172 24.7349 58.0582 23.9056 58.7329 23.682C58.9579 23.6099 59.3206 23.5811 59.7415 23.8551C61.0837 24.8647 60.126 28.5282 60.0099 28.9393V28.9465Z" fill="#C46966"/>
<path d="M24.9443 27.9159C28.5793 27.9375 25.8294 16.2764 28.6808 13.4495C30.1319 12.0144 51.1147 12.0721 52.5078 13.4495C55.3592 16.2692 52.6093 27.9303 56.2443 27.9159C55.9904 25.2187 55.9831 22.2692 57.9784 21.2019C59.3787 8.43029 52.8488 0 40.6016 0C28.3543 0 21.8172 8.43029 23.2102 21.2019C24.8282 22.2476 25.1982 25.0962 24.9443 27.9159Z" fill="#4C224B"/>
<path d="M40.6015 31.782C40.6015 31.782 31.9893 31.5945 31.6338 37.3132H49.5693C49.2138 31.5945 40.6015 31.782 40.6015 31.782Z" fill="#4C224B"/>
</g>
<defs>
<clipPath id="clip0_259_6831">
<rect width="81" height="81" fill="white"/>
</clipPath>
</defs>
</svg>
