<svg width="81" height="81" viewBox="0 0 81 81" fill="none" xmlns="http://www.w3.org/2000/svg">
<g clip-path="url(#clip0_259_6928)">
<path d="M69.1376 69.2086C84.9538 53.5453 84.9538 28.15 69.1376 12.4867C53.3214 -3.17657 27.6782 -3.17656 11.862 12.4867C-3.95426 28.15 -3.95426 53.5453 11.862 69.2086C27.6782 84.8719 53.3214 84.8719 69.1376 69.2086Z" fill="#FCE8E3"/>
<path d="M51.3106 35.6113H29.8853V59.5815H51.3106V35.6113Z" fill="#E2988F"/>
<path d="M75.2101 61.7232C63.7755 56.672 51.3106 54.8828 51.3106 54.8828C45.5933 60.7891 34.935 60.8682 29.8852 54.8828C29.8852 54.8828 17.4204 56.672 5.98575 61.7232C13.0961 73.2772 25.9383 81.0014 40.6016 81.0014C55.2649 81.0014 68.107 73.2844 75.2174 61.7232H75.2101Z" fill="#D85D63"/>
<path d="M40.2968 62.0614C40.2315 62.0614 40.159 62.0614 40.0937 62.0614C34.5577 62.0039 29.8925 59.5897 27.2805 55.4294L27.7449 55.1419C30.248 59.137 34.7536 61.4578 40.1009 61.5153C40.1662 61.5153 40.2315 61.5153 40.2968 61.5153C45.811 61.5153 50.8245 59.0795 53.4147 55.1348L53.8718 55.4294C51.18 59.525 45.9924 62.0542 40.2968 62.0542V62.0614Z" fill="#B73D49"/>
<path d="M60.8588 22.3966C60.8588 33.4764 54.7134 47.8685 41.1167 47.5955C26.4897 47.5955 20.932 34.82 20.932 23.7403C18.3708 16.5406 21.4471 8.72297 26.7799 7.2859C30.1102 1.77477 35.9 0 41.7189 0C52.9068 0 63.9496 8.14814 60.8516 22.3966H60.8588Z" fill="#4C224B"/>
<path d="M60.8298 23.9422C59.6907 21.2478 57.3617 22.5699 57.3617 22.5699C57.8478 12.0003 52.4062 4.66406 40.6016 4.66406C28.7969 4.66406 23.4206 13.4661 23.8415 22.5699C23.8415 22.5699 21.5124 21.2478 20.3733 23.9422C19.2342 26.6367 21.3166 32.967 22.6008 34.9789C23.8922 36.9908 25.8367 36.1429 25.8367 36.1429C25.8367 36.1429 26.3156 40.7702 26.9105 42.3366C27.5055 43.903 34.2385 51.1243 36.2193 52.2236C38.8167 53.7397 42.6404 53.7397 44.9766 52.2236C46.9574 51.1171 53.6904 43.903 54.2854 42.3366C54.8803 40.7702 55.3447 36.0567 55.3447 36.0567C55.3447 36.0567 57.3037 36.9908 58.5951 34.9789C59.8793 32.967 61.9617 26.6439 60.8226 23.9422H60.8298Z" fill="#E2988F"/>
<path d="M40.6959 52.5829C35.8855 52.5829 32.3231 49.2848 30.0667 46.7987L30.473 46.4395C32.6641 48.8465 36.1032 52.044 40.6959 52.044C45.0347 52.044 48.1981 49.213 50.723 46.4395L51.1293 46.7987C48.5246 49.6585 45.2523 52.5829 40.7032 52.5829H40.6959Z" fill="#C46966"/>
<path d="M25.7813 33.2231L25.2406 33.2832L25.5681 36.1751L26.1089 36.115L25.7813 33.2231Z" fill="#C46966"/>
<path d="M55.3836 33.2267L55.0865 36.0352L55.6277 36.0913L55.9248 33.2828L55.3836 33.2267Z" fill="#C46966"/>
<path d="M21.8825 30.0128C21.7736 29.6176 20.8449 26.0968 22.1292 25.1268C22.5572 24.8537 22.9055 24.8753 23.1304 24.9471C23.7834 25.1555 24.1099 25.9603 24.1462 26.0537L23.6383 26.2477C23.5657 26.068 23.3046 25.5722 22.9563 25.4645C22.7967 25.4142 22.6298 25.4501 22.4412 25.5722C21.7084 26.1255 22.0276 28.5039 22.4049 29.8762L21.8825 30.02V30.0128Z" fill="#C46966"/>
<path d="M59.3134 30.0136L58.791 29.8699C59.1683 28.5046 59.4875 26.1191 58.7402 25.5587C58.5661 25.4509 58.3992 25.415 58.2396 25.4653C57.8913 25.573 57.6301 26.0688 57.5576 26.2485L57.0497 26.0545C57.086 25.961 57.4125 25.1635 58.0654 24.9479C58.2831 24.8761 58.6386 24.8473 59.0449 25.1132C60.3437 26.0904 59.415 29.6112 59.3061 30.0064L59.3134 30.0136Z" fill="#C46966"/>
<path d="M23.8414 22.5683C24.8499 19.1194 26.3954 16.1159 28.8187 13.8453C35.6316 21.7061 44.0261 26.8292 57.3617 22.5683L58.392 19.22C58.392 19.22 56.7812 12.1209 56.7812 11.8622C56.7812 11.6035 51.5065 6.73907 51.5065 6.73907L44.6428 3.95117H37.576L31.9458 5.52475L26.9758 9.68505L23.8414 15.9219V22.5683Z" fill="#4C224B"/>
</g>
<defs>
<clipPath id="clip0_259_6928">
<rect width="81" height="81" fill="white"/>
</clipPath>
</defs>
</svg>
