<svg width="81" height="81" viewBox="0 0 81 81" fill="none" xmlns="http://www.w3.org/2000/svg">
<g clip-path="url(#clip0_261_7177)">
<path d="M79.9157 50.2695C85.0537 28.8964 71.5713 7.4807 49.8019 2.43619C28.0325 -2.60832 6.21974 10.6286 1.0817 32.0017C-4.05635 53.3748 9.42603 74.7906 31.1954 79.8351C52.9648 84.8796 74.7776 71.6426 79.9157 50.2695Z" fill="#FCE8E3"/>
<path d="M50.012 36.002H31.0389V59.7656H50.012V36.002Z" fill="#E2988F"/>
<path d="M75.348 61.5605C66.4165 57.8777 50.128 55.0996 50.128 55.0996C43.8737 60.2712 35.9653 60.2356 31.0461 55.0996C31.0461 55.0996 14.5472 57.5002 5.2384 60.6986C11.8917 72.3026 24.2985 80.3021 38.6716 80.9432C39.3173 80.9646 39.9558 80.986 40.6088 80.986C55.3882 80.9646 68.3029 73.1716 75.3552 61.5534L75.348 61.5605Z" fill="white"/>
<path d="M27.1862 55.7188C21.7446 56.6305 11.7394 58.4684 5.2312 60.7122C11.1952 71.1124 21.7737 78.6062 34.2458 80.5152C34.2458 80.5152 28.0496 69.5239 27.1862 55.7188Z" fill="#94A5E4"/>
<path d="M53.8138 55.7188C59.2554 56.6305 69.2607 58.4684 75.7689 60.7122C69.8049 71.1124 59.2264 78.6062 46.7543 80.5152C46.7543 80.5152 52.9504 69.5239 53.8138 55.7188Z" fill="#94A5E4"/>
<path d="M40.5001 7.22461C28.2674 7.23886 25.4885 16.2286 25.7425 25.2824C25.7425 31.8074 25.2709 33.9231 25.8876 35.5401C26.2286 37.8409 30.9882 49.5731 40.4928 49.5731C49.9975 49.5731 54.3508 38.4606 55.1924 35.5401C55.8091 33.9231 55.2505 31.8074 55.2505 25.2824C55.5044 16.2286 52.7256 7.23886 40.4928 7.22461H40.5001Z" fill="#E2988F"/>
<path d="M40.5001 49.8428C37.2424 49.8428 33.4478 47.9978 30.8358 45.1413L31.2421 44.7852C33.7525 47.5348 37.3875 49.3085 40.5001 49.3085C43.6127 49.3085 47.371 47.4992 49.8089 44.7994L50.2152 45.1556C47.683 47.9622 43.7796 49.8499 40.5001 49.8499V49.8428Z" fill="#C46966"/>
<path d="M26.0181 26.1509C26.0181 26.1509 23.515 23.2588 20.9393 24.947C18.3636 26.6424 20.8668 36.2518 26.0181 34.5565C31.1695 32.8611 26.0181 26.1509 26.0181 26.1509Z" fill="#E2988F"/>
<path d="M55.0328 26.1509C55.0328 26.1509 57.5359 23.2588 60.1116 24.947C62.6873 26.6424 60.1842 36.2518 55.0328 34.5565C49.8814 32.8611 55.0328 26.1509 55.0328 26.1509Z" fill="#E2988F"/>
<path d="M25.3333 30.2817L24.7943 30.3555L25.4257 34.8002L25.9647 34.7264L25.3333 30.2817Z" fill="#C46966"/>
<path d="M55.6356 30.2872L55.2146 34.7344L55.7564 34.7838L56.1774 30.3366L55.6356 30.2872Z" fill="#C46966"/>
<path d="M22.2308 29.9539C21.6793 28.5079 21.6286 27.4607 22.1002 26.8339C22.5282 26.2569 23.2248 26.2854 23.2538 26.2854L23.2248 26.8196C23.2248 26.8196 22.7894 26.8054 22.5355 27.1544C22.2961 27.475 22.1437 28.1945 22.7459 29.7687L22.238 29.9539H22.2308Z" fill="#C46966"/>
<path d="M59.0305 29.9546L58.5227 29.7694C59.1249 28.1951 58.9652 27.4828 58.7331 27.1623C58.4791 26.8132 58.0656 26.8275 58.0438 26.8275L58.0148 26.2932C58.0148 26.2932 58.7331 26.2647 59.1684 26.8417C59.6327 27.4686 59.5892 28.5157 59.0305 29.9617V29.9546Z" fill="#C46966"/>
<path d="M24.11 24.7334C26.3882 20.7372 37.1916 21.2643 40.5218 12.1393C43.7433 22.5537 53.2697 19.5048 57.4779 25.0753C57.4779 25.0753 55.4681 4.08984 40.5218 4.08984C25.5756 4.08984 24.11 24.7334 24.11 24.7334Z" fill="#6B4811"/>
</g>
<defs>
<clipPath id="clip0_261_7177">
<rect width="81" height="81" fill="white"/>
</clipPath>
</defs>
</svg>
