<svg width="111" height="111" viewBox="0 0 111 111" fill="none" xmlns="http://www.w3.org/2000/svg">
<g clip-path="url(#clip0_254_6084)">
<path d="M55.5 110.999C86.1518 110.999 111 87.3177 111 58.1051C111 28.8925 86.1518 5.21094 55.5 5.21094C24.8482 5.21094 0 28.8925 0 58.1051C0 87.3177 24.8482 110.999 55.5 110.999Z" fill="#FCE8E3"/>
<path d="M55.331 72.5371C64.4793 72.5371 71.8955 71.5358 71.8955 70.3008C71.8955 69.0657 64.4793 68.0645 55.331 68.0645C46.1827 68.0645 38.7665 69.0657 38.7665 70.3008C38.7665 71.5358 46.1827 72.5371 55.331 72.5371Z" fill="#94A5E4"/>
<path d="M70.1754 51.1406H40.8147V82.752H70.1754V51.1406Z" fill="#E2988F"/>
<path d="M85.1491 30.6543C83.4787 26.8451 80.0683 28.7213 80.0683 28.7213C82.037 11.4184 72.8003 0 55.5 0C38.1998 0 28.963 11.4184 30.9317 28.7213C30.9317 28.7213 27.5213 26.8545 25.851 30.6543C24.1806 34.4542 27.233 43.3804 29.1221 46.2232C31.0112 49.0564 34.3519 51.2074 34.3519 51.2074C34.3519 51.2074 34.5707 54.3913 35.4456 56.6087C36.3206 58.826 46.1937 69.0031 49.0969 70.5571C52.905 72.6892 58.5126 72.6892 61.9329 70.5571C64.8362 69.0031 74.7092 58.8165 75.5842 56.6087C76.4592 54.3913 76.6779 51.2074 76.6779 51.2074C76.6779 51.2074 80.0186 49.0659 81.9077 46.2232C83.7968 43.3899 86.8393 34.4636 85.1789 30.6543H85.1491Z" fill="#E2988F"/>
<path d="M28.098 39.2018C27.9389 38.6427 26.5768 33.6868 28.446 32.3413C29.0624 31.9622 29.5695 32.0001 29.8877 32.0949C30.8521 32.3981 31.3393 33.5826 31.3691 33.6394L30.6731 33.8953C30.5638 33.6395 30.186 32.9288 29.659 32.7771C29.4204 32.7013 29.1619 32.7487 28.8835 32.9288C27.7997 33.7153 28.267 37.0887 28.8238 39.0217L28.1079 39.2112L28.098 39.2018Z" fill="#C46966"/>
<path d="M82.902 39.2013L82.1861 39.0118C82.5838 37.6188 83.3494 33.8 82.1066 32.8998C81.8481 32.7387 81.5896 32.6914 81.3509 32.7672C80.8339 32.9283 80.4462 33.6295 80.3368 33.8853L79.6408 33.6295C79.6607 33.5821 80.1479 32.3881 81.1223 32.0849C81.4404 31.9902 81.9475 31.9428 82.5341 32.3123C84.4232 33.6769 83.071 38.6327 82.9119 39.1918L82.902 39.2013Z" fill="#C46966"/>
<path d="M55.5 0C38.1898 0 28.963 11.4184 30.9316 28.7213C33.2185 30.1426 33.7454 33.9993 33.3875 37.8181C33.3875 37.8181 32.6219 49.9756 35.1374 55.7179C37.643 61.4508 42.0177 70.415 55.5 70.3107C68.9823 70.4244 73.357 61.4603 75.8626 55.7179C78.3681 49.9851 77.6125 37.8181 77.6125 37.8181C77.2546 34.1699 77.2446 30.1616 80.0683 28.7213C82.037 11.4184 72.8002 0 55.5 0ZM74.4408 26.5797C74.4408 26.5797 74.1027 42.4518 71.5375 45.9294C68.9624 49.407 69.7677 41.6937 55.5099 41.561C41.2521 41.4284 42.0476 49.407 39.4724 45.9294C36.9072 42.4612 36.5691 26.6461 36.5691 26.5797C36.7382 23.0737 37.0961 19.7192 38.677 18.222C40.7252 16.2795 43.7179 16.5922 46.2732 17.2176C49.256 17.9472 52.3382 18.9233 55.49 18.9991C58.8208 19.0843 61.9926 17.9188 65.1842 17.1797C67.6698 16.6111 70.3643 16.3553 72.3329 18.222C73.9138 19.7287 74.2718 23.0737 74.4408 26.5892V26.5797Z" fill="#4C224B"/>
<path d="M105.72 80.6293C91.8106 77.417 71.8855 76.5547 71.8855 76.5547C61.6048 84.3438 47.8541 84.4481 38.7565 76.5547C38.7565 76.5547 19.1993 77.7676 5.39886 80.8946C14.3274 98.6997 33.4074 110.999 55.4901 110.999C77.692 110.999 96.8317 98.5765 105.71 80.6293H105.72Z" fill="#94A5E4"/>
<path d="M38.7665 70.3008V78.2131C50.5187 86.476 61.575 86.5898 71.8955 78.2131V70.3008C66.0492 73.9111 42.5149 73.4183 38.7665 70.3008Z" fill="#94A5E4"/>
<path d="M54.9333 81.4066C53.3226 81.4066 51.7218 81.3403 50.1707 81.2076C47.0984 80.9518 39.8005 80.0137 38.4185 76.8961L39.1045 76.6213C39.9497 78.5354 44.1156 79.9852 50.2403 80.4969C58.7314 81.2076 69.3004 79.9094 71.5773 76.5645L72.2037 76.953C70.1754 79.9378 62.5394 81.3971 54.9333 81.3971V81.4066Z" fill="#6C82BC"/>
<path d="M54.9929 74.8217C51.9803 74.8217 49.0472 74.689 46.651 74.4427C42.4353 74.0163 39.9198 73.315 39.1642 72.3485L39.7607 71.9221C40.0391 72.2822 41.2919 73.1824 46.7306 73.732C55.3608 74.6038 68.4951 73.9025 70.941 71.8652L71.4282 72.3959C69.38 74.1015 61.9727 74.8122 54.983 74.8122L54.9929 74.8217Z" fill="#6C82BC"/>
</g>
<defs>
<clipPath id="clip0_254_6084">
<rect width="111" height="111" fill="white"/>
</clipPath>
</defs>
</svg>
