<svg xmlns="http://www.w3.org/2000/svg" fill="none" viewBox="0.7799883000000001 0 602.55 216" style="max-height: 500px" width="602.55" height="216">
<path fill-opacity="0.4" fill="#B6E6FC" d="M74.2734 91.3711C29.8301 91.3711 6.23977 126.114 0 143.485V193.999C0 202.284 6.57717 208.999 14.8614 208.999H613.51C501.194 208.999 527.764 166.564 442.017 143.485C356.271 120.406 333.324 143.485 268.713 143.485C204.101 143.485 129.827 91.3711 74.2734 91.3711Z"/>
<path fill="#E1E7FF" d="M56.8634 126.031C23.1417 126.031 5.2423 150.537 0.507812 162.79V194.001C0.507812 202.285 7.16504 209.001 15.4493 209.001H466.014C380.794 209.001 400.954 179.069 335.893 162.79C270.832 146.511 253.421 162.79 204.396 162.79C155.371 162.79 99.0156 126.031 56.8634 126.031Z"/>
<mask height="208" width="975" y="0" x="0" maskUnits="userSpaceOnUse" style="mask-type:alpha" id="mask0_875_5632">
<rect stroke="black" fill="white" rx="19.5" height="206.95" width="974" y="0.5" x="0.5"/>
</mask>
<g mask="url(#mask0_875_5632)">
<g clip-path="url(#clip0_875_5632)">
<path fill="#14A7D2" d="M94.1874 172.204V182.789C94.1874 183.02 94.1089 183.223 93.9862 183.372C93.8668 183.509 93.7099 183.595 93.5325 183.595H85.5475C85.1859 183.595 84.8926 183.235 84.8926 182.793V172.208C84.8926 171.766 85.1859 171.406 85.5475 171.406H93.5325C93.8941 171.406 94.1874 171.766 94.1874 172.208V172.204Z"/>
<path fill="#C3E1E1" d="M94.1874 176.25H84.8926V180.043H94.1874V176.25Z"/>
<g opacity="0.7" style="mix-blend-mode:multiply">
<path fill="#14A7D2" d="M94.1884 172.204V182.789C94.1884 183.02 94.1099 183.223 93.9871 183.372C93.8678 183.509 93.7109 183.595 93.5335 183.595H91.0605C91.4221 183.595 91.7154 183.235 91.7154 182.793V172.208C91.7154 171.766 91.4221 171.406 91.0605 171.406H93.5335C93.895 171.406 94.1884 171.766 94.1884 172.208V172.204Z"/>
</g>
<path fill="#AAC1C0" d="M94.0587 168.484H93.0934C93.3083 168.696 93.4345 169.028 93.4345 169.388V172.055C93.4345 172.496 93.2367 172.86 92.9297 173.102H94.0587C94.5942 173.102 95.0308 172.598 95.0308 171.984V169.603C95.0308 168.989 94.5976 168.488 94.0587 168.488V168.484Z"/>
<path fill="#C3E1E1" d="M93.4341 172.055V169.388C93.4341 169.028 93.3079 168.696 93.093 168.484H84.934C84.3985 168.484 83.9551 168.985 83.9551 169.599V171.98C83.9551 172.594 84.3985 173.099 84.934 173.099H92.9259C93.2363 172.86 93.4307 172.496 93.4307 172.051L93.4341 172.055Z"/>
<path fill="#E2F7F6" d="M85.361 169.414H85.3815C85.7294 169.414 86.0125 169.739 86.0125 170.137V171.475C86.0125 171.874 85.7294 172.202 85.3781 172.202H85.3576C85.0097 172.202 84.7266 171.878 84.7266 171.479V170.141C84.7266 169.743 85.0097 169.418 85.3576 169.418L85.361 169.414Z"/>
<path fill="#511709" d="M103.989 166.807L102.276 164.285H97.8557L96.1434 166.807C95.7853 167.496 95.5977 168.278 95.5977 169.079V181.655C95.5977 181.835 95.6181 182.007 95.6556 182.171C95.8569 183.051 96.5493 183.7 97.3782 183.7H102.747C103.576 183.7 104.272 183.051 104.469 182.171C104.507 182.007 104.527 181.835 104.527 181.655V169.079C104.527 168.282 104.34 167.496 103.982 166.807H103.989Z"/>
<path fill="#796BBF" d="M97.2031 162.797V162.863C97.2031 163.313 97.858 163.677 97.858 163.677V164.287H102.279V163.677C102.279 163.677 102.964 163.313 102.964 162.863V162.797H97.2065H97.2031Z"/>
<path fill="#796BBF" d="M104.534 169.079V181.655C104.534 181.835 104.51 182.007 104.472 182.171C104.271 183.051 103.579 183.7 102.746 183.7H97.3811C96.8456 183.7 96.368 183.43 96.0406 183.004C95.8598 182.769 95.7268 182.484 95.6551 182.171C95.6176 182.007 95.5938 181.835 95.5938 181.655V169.079C95.5938 168.282 95.7814 167.496 96.1395 166.807L97.7938 164.367L97.8518 164.285H102.276L103.988 166.807C104.343 167.496 104.534 168.278 104.534 169.079Z"/>
<path fill="#FCE9BB" d="M99.6569 162.794H97.1669C97.0237 162.794 96.9043 162.661 96.9043 162.492C96.9043 162.328 97.0203 162.191 97.1669 162.191H99.6569C99.8002 162.191 99.9196 162.324 99.9196 162.492C99.9196 162.657 99.8036 162.794 99.6569 162.794Z"/>
<g style="mix-blend-mode:multiply">
<path fill="#F9E19B" d="M102.958 162.794H101.519C101.375 162.794 101.256 162.661 101.256 162.492C101.256 162.328 101.372 162.191 101.519 162.191H102.958C103.101 162.191 103.221 162.324 103.221 162.492C103.221 162.657 103.105 162.794 102.958 162.794Z"/>
</g>
<path fill="#F9E19B" d="M103.22 162.494C103.22 162.658 103.104 162.795 102.957 162.795H97.1689C97.0256 162.795 96.9062 162.662 96.9062 162.494C96.9062 162.326 97.0222 162.193 97.1689 162.193H97.4077V158.185C97.4077 157.837 97.5543 157.528 97.7829 157.34C97.8613 157.274 97.95 157.223 98.0421 157.188C98.1308 157.156 98.2229 157.137 98.3184 157.137H101.784C101.907 157.137 102.023 157.164 102.132 157.215C102.227 157.262 102.316 157.324 102.391 157.403C102.579 157.594 102.695 157.872 102.695 158.185V162.193H102.954C103.097 162.193 103.216 162.326 103.216 162.494H103.22Z"/>
<path fill="#F9E19B" d="M100.673 173.441H95.5977V176.871H100.673V173.441Z"/>
<g opacity="0.6" style="mix-blend-mode:multiply">
<path fill="#380E06" d="M104.534 169.079V181.655C104.534 181.835 104.513 182.007 104.472 182.171C104.271 183.051 103.579 183.7 102.75 183.7H100.505C100.717 183.7 100.921 183.657 101.109 183.579C101.658 183.352 102.081 182.824 102.228 182.171C102.265 182.007 102.289 181.835 102.289 181.655V169.079C102.289 168.282 102.102 167.496 101.744 166.807L100.031 164.285H102.279L103.991 166.807C104.346 167.496 104.537 168.278 104.537 169.079H104.534Z"/>
</g>
<g opacity="0.4" style="mix-blend-mode:color-dodge">
<path fill="#F9E19B" d="M100.45 159.847C100.45 160.973 100.191 162.001 99.7646 162.791H97.1689C97.0256 162.791 96.9062 162.658 96.9062 162.49C96.9062 162.322 97.0222 162.189 97.1689 162.189H97.4077V158.181C97.4077 157.833 97.5543 157.524 97.7829 157.336C97.8613 157.27 97.95 157.219 98.0421 157.184C98.1308 157.152 98.2229 157.133 98.3184 157.133H99.8806C100.235 157.888 100.447 158.826 100.447 159.843L100.45 159.847Z"/>
</g>
<path fill="#B7B7B7" d="M82.25 181.914L84.0714 190.618H122.629L124.839 181.914H82.25Z"/>
<path fill="#BCBCBC" d="M110.542 196.477H82.9785V339.505H110.542V196.477Z"/>
<path fill="#E6E7E9" d="M252.992 196.477V339.505H167.665V229.816H87.003V339.505H81.375V196.477H252.992Z"/>
<path fill="#BCBCBC" d="M252.989 196.477H182.895V339.505H252.989V196.477Z"/>
<path fill="#E6E7E9" d="M259.641 194.727C259.641 197.046 258.842 198.927 257.86 198.927H76.5071C75.5247 198.927 74.7266 197.046 74.7266 194.727C74.7266 193.566 74.9278 192.518 75.2484 191.755C75.5725 190.997 76.0159 190.527 76.5071 190.527H257.86C258.842 190.527 259.641 192.408 259.641 194.727Z"/>
<path fill="#BCBCBC" d="M259.64 194.727C259.64 197.046 258.463 198.927 257.014 198.927H173.265C171.815 198.927 170.639 197.046 170.639 194.727C170.639 193.566 170.932 192.518 171.41 191.755C171.884 190.997 172.542 190.527 173.265 190.527H257.014C258.463 190.527 259.64 192.408 259.64 194.727Z"/>
<path fill="#BCBCBC" d="M237.104 198.898H77.3223V202.058H237.104V198.898Z"/>
<path fill="#FFB278" d="M250.297 172.839C250.287 173.277 250.249 173.704 250.181 174.114C250.024 175.088 249.714 175.976 249.264 176.785C248.837 177.563 248.288 178.267 247.63 178.912C246.767 179.753 245.723 180.484 244.529 181.118C231.783 187.882 202.278 183.39 201.586 182.838C200.273 181.794 200.989 178.33 200.549 176.691C205.338 174.443 226.247 169.406 232.925 166.638C233.215 166.52 233.478 166.403 233.71 166.294C233.853 166.227 233.986 166.161 234.106 166.098C234.334 165.977 234.518 165.863 234.662 165.754L241.63 168.913L250.29 172.839H250.297Z"/>
<path fill="#FFB278" d="M202.96 176.379C198.771 177.321 197.72 175.957 193.126 178.064C189.886 176.215 185.956 178.698 184.203 179.245C183.053 179.605 182.798 175.828 180.809 177.008C179.96 177.513 180.881 179.855 180.942 180.755C184.79 181.986 188.961 184.297 192.754 183.402C195.002 182.87 197.171 182.291 199.371 181.76C201.23 181.31 204.344 181.294 205.712 180.172L202.956 176.379H202.96Z"/>
<path fill="#FFB278" d="M205.747 176.379C201.558 177.321 200.508 175.957 195.913 178.064C192.673 176.215 188.743 178.698 186.99 179.245C185.841 179.605 185.585 175.828 183.596 177.008C182.747 177.513 183.668 179.855 183.729 180.755C187.577 181.986 191.748 184.297 195.541 183.402C197.789 182.87 199.958 182.291 202.158 181.76C204.017 181.31 207.132 181.294 208.499 180.172L205.743 176.379H205.747Z"/>
<path fill="#FFB278" d="M208.671 176.227C204.482 177.169 203.431 175.804 198.837 177.912C195.596 176.062 191.667 178.545 189.914 179.093C188.764 179.453 188.509 175.675 186.52 176.86C185.671 177.364 186.592 179.707 186.653 180.606C190.501 181.838 194.672 184.149 198.465 183.253C200.713 182.722 202.882 182.143 205.082 181.611C206.941 181.161 210.055 181.146 211.423 180.023L208.667 176.23L208.671 176.227Z"/>
<path fill="#FFB278" d="M193.635 174.513C190.449 175.882 188.641 173.68 187.26 175.729C187.526 177.098 189.658 177.258 191.288 177.657C192.673 177.997 193.41 178.553 194.764 179.151C198.11 180.629 201.494 178.502 204.123 178.467V175.119C200.788 175.151 196.626 173.223 193.635 174.509V174.513Z"/>
<path fill="#FFB278" d="M255.028 157.529C254.086 161.869 252.848 167.696 250.863 172.556C250.645 173.088 250.419 173.608 250.181 174.117C249.809 174.918 249.41 175.681 248.987 176.392C248.98 176.404 248.973 176.412 248.966 176.424L246.013 175.384L240.248 173.358L230.793 170.034C231.741 169.327 232.591 168.243 233.365 166.922C233.484 166.722 233.6 166.515 233.713 166.304C233.76 166.214 233.808 166.124 233.856 166.038C234.306 165.182 234.726 164.251 235.125 163.273C235.265 162.929 235.401 162.577 235.541 162.221C237.281 157.635 238.57 152.328 239.764 149.2C241.476 144.703 243.946 137.934 248.005 135.588C257.323 130.2 255.955 153.275 255.031 157.537L255.028 157.529Z"/>
<path fill="#425B28" d="M264.202 129.695C263.732 126.688 261.979 123.743 257.074 123.356C252.053 122.961 250.272 125.585 248.57 128.279C246.032 132.295 235.769 154.095 232.645 159.108C232.645 159.108 250.92 168.481 252.07 166.718C255.269 161.806 265.175 135.932 264.202 129.695Z"/>
<path fill="#6B8E43" d="M235.008 154.129L231.379 159.959C234.708 162.704 250.446 169.469 252.073 166.712C253.113 164.953 254.396 161.828 255.215 160.014C251.81 158.958 237.024 155.892 235.008 154.129Z"/>
<path fill="#306E87" d="M250.86 172.558C250.642 173.089 250.417 173.61 250.178 174.118C250.021 175.092 249.711 175.979 249.261 176.789C249.172 176.656 249.08 176.523 248.984 176.39C247.187 173.864 245.004 171.76 242.589 170.075C239.973 168.252 237.084 166.927 234.106 166.098C234.021 166.074 233.939 166.051 233.854 166.027C234.304 165.171 234.723 164.24 235.122 163.263C235.262 162.919 235.399 162.567 235.539 162.211C241.395 163.931 246.801 167.455 250.86 172.55V172.558Z"/>
<path fill="#306E87" d="M247.63 178.915C246.767 179.755 245.723 180.487 244.529 181.12C243.407 178.254 241.978 175.654 240.245 173.358C238.318 170.801 236.022 168.631 233.362 166.918C233.215 166.828 233.072 166.734 232.922 166.644C233.212 166.527 233.474 166.41 233.706 166.3C233.754 166.21 233.802 166.12 233.85 166.034C234.3 165.178 234.719 164.247 235.119 163.27C237.533 164.81 239.716 166.711 241.63 168.916C241.957 169.295 242.278 169.679 242.588 170.077C243.874 171.708 245.02 173.483 246.01 175.384C246.607 176.518 247.145 177.699 247.626 178.915H247.63Z"/>
<path fill="#FFFF97" d="M227.062 185.821C227.062 188.465 225.308 190.608 223.146 190.608H163.103C160.941 190.608 159.188 188.465 159.188 185.821C159.188 183.178 160.941 181.035 163.103 181.035H223.146C225.308 181.035 227.062 183.178 227.062 185.821Z"/>
<path fill="#E0DD85" d="M253.169 185.821C253.169 188.465 251.699 190.608 249.884 190.608H199.543C197.728 190.608 196.258 188.465 196.258 185.821C196.258 183.178 197.728 181.035 199.543 181.035H249.884C251.699 181.035 253.169 183.178 253.169 185.821Z"/>
<path fill="#FFB278" d="M204.286 157.624C202.035 156.232 200.473 157.397 199.408 160.17C199.057 161.089 198.406 163.247 198.754 164.155C199.228 165.386 201.342 166.211 202.318 166.743C204.552 167.955 207.39 169.117 209.784 168.55L209.945 160.584C208.55 161.155 205.592 158.43 204.283 157.62L204.286 157.624Z"/>
<path fill="#EDEFEA" d="M223.68 159.41C220.887 158.081 217.841 160.169 215.358 161.522L207.223 169.553C211.684 168.455 216.159 171.153 220.634 169.561C222.732 168.814 224.734 167.723 225.509 165.072C226.174 162.8 225.707 160.376 223.677 159.41H223.68Z"/>
<path fill="white" d="M222.132 156.321C221.119 156.321 219.902 156.004 218.94 156.153C217.817 156.329 216.856 157.224 215.904 157.811C214.485 158.683 213.076 159.614 211.674 160.462C210.77 161.01 209.536 162.089 208.611 162.132L214.424 164.763C215.655 164.196 221.044 160.286 222.647 160.138C224.479 159.969 224.783 161.96 226.546 162.55C229.415 163.508 227.849 160.38 227.273 158.886C226.335 156.434 224.264 156.325 222.132 156.325V156.321Z"/>
<path fill="white" d="M226.741 161.518L226.786 162.347C226.387 163.88 224.974 165.021 224.343 166.437C223.313 168.744 225.377 168.24 226.629 167.379C227.724 166.629 229.078 165.534 229.177 163.915C229.255 162.679 227.778 160.165 226.745 161.518H226.741Z"/>
<path fill="white" d="M227.368 164.537L227.017 165.264C225.96 166.308 224.234 166.398 223.037 167.2C221.085 168.506 223.06 169.354 224.52 169.405C225.793 169.448 227.45 169.362 228.296 168.06C228.941 167.067 228.879 164.036 227.372 164.541L227.368 164.537Z"/>
<path fill="white" d="M225.779 165.97L225.427 166.694C224.37 167.738 222.644 167.828 221.447 168.629C219.496 169.935 221.471 170.784 222.93 170.835C224.206 170.878 225.86 170.792 226.706 169.49C227.351 168.492 227.29 165.466 225.782 165.97H225.779Z"/>
<path fill="#CCCCCC" d="M214.486 174.505L214.346 174.314L219.544 169.406L219.684 169.598L214.486 174.505Z"/>
<path fill="#FFFFDE" d="M225.62 162.722L217.842 170.07L218.775 171.368L226.553 164.02L225.62 162.722Z"/>
<path fill="#FFFFDE" d="M225.104 161.473L224.574 161.973L227 165.351L227.529 164.851L225.104 161.473Z"/>
<path fill="white" d="M224.581 164.498C223.981 163.117 221.256 162.242 220.171 161.373C217.06 158.886 211.688 162.414 208.799 159.105C206.937 161.694 206.248 165.941 207.155 168.999C207.155 168.999 211.282 171.22 211.964 171.083C213.083 170.86 213.946 169.785 214.857 169.014C215.675 168.322 215.996 165.906 217.156 165.827C218.073 165.765 219.383 166.578 220.304 166.824C221.651 167.184 225.854 167.419 224.585 164.494L224.581 164.498Z"/>
<path fill="white" d="M225.086 159.112L225.134 159.941C224.738 161.474 223.329 162.623 222.702 164.039C221.679 166.35 223.739 165.838 224.991 164.97C226.082 164.215 227.433 163.116 227.528 161.493C227.6 160.258 226.12 157.747 225.089 159.108L225.086 159.112Z"/>
<path fill="white" d="M206.557 159.289C203.934 161.741 200.936 164.263 198.227 166.734C197.535 167.364 196.86 167.997 196.215 168.619C192.016 163.731 188.117 157.22 186.047 149.501C183.922 141.575 183.332 133.078 182.322 124.917L188.476 102.488L196.498 73.2422C199.258 79.6786 200.356 84.1833 199.769 91.1593C199.135 98.6828 195.516 112.248 195.853 119.912C196.181 127.424 196.771 135.108 197.965 142.412C198.487 145.619 199.08 148.692 200.499 151.582C201.41 153.431 205.534 158.19 206.557 159.281V159.289Z"/>
<path fill="#DFEAE8" d="M198.228 166.733C197.536 167.362 196.86 167.996 196.216 168.617C189.591 164.085 184.39 153.887 182.323 146.168C180.198 138.242 183.332 133.08 182.323 124.915L188.476 102.486L189.595 101.129C185.577 110.146 186.068 128.372 187.412 138.668C188.94 150.372 192.576 157.856 198.228 166.733Z"/>
<path fill="white" d="M172.295 172.298C165.726 190.622 165 226.874 167.179 228.544C161.698 229.08 116.653 225.209 111.104 215.499C116.496 194.039 136.276 175.958 143.425 155.069C147.348 143.608 150.807 131.908 154.276 120.201C154.685 118.812 155.098 117.42 155.51 116.032C158.328 106.542 159.829 96.0229 163.151 86.9861L193.341 66.582C193.644 67.8255 197.396 70.9381 198.345 73.4486C199.576 76.7059 198.532 81.9887 198.004 85.3438C196.592 94.2633 193.276 108.556 190.984 117.366C185.598 138.055 179.431 152.386 172.292 172.306L172.295 172.298Z"/>
<path fill="#C7D3D1" d="M151.469 229.291C151.4 229.404 151.332 229.514 151.261 229.623C145.779 230.159 140.973 227.731 135.847 225.388C131.16 223.245 115.937 217.701 111.104 215.499C116.496 194.039 136.276 175.958 143.426 155.069C147.348 143.608 150.807 131.908 154.276 120.2L188.215 100.434C187.645 103.108 185.957 105.423 184.8 107.781C183.109 111.234 181.424 114.788 179.981 118.386C176.768 126.402 174.329 134.751 171.829 143.17C165.975 162.886 161.412 182.859 157.322 202.998C155.545 211.741 153.71 220.579 151.469 229.291Z"/>
<path fill="#50A393" d="M163.966 292.787C163.84 307.458 163.615 319.24 163.257 324.539C156.776 324.773 150.646 325.133 144.677 324.23C143.773 298.073 143.023 242.081 140.424 199.572C139.015 176.462 137.057 157.341 134.236 149.164L161.012 154.373C159.447 155.741 163.072 175.52 163.383 180.087C163.877 187.368 164.314 251.521 163.963 292.783L163.966 292.787Z"/>
<path fill="#3E7F73" d="M163.966 292.785C163.84 307.456 163.615 319.238 163.257 324.537C156.776 324.771 150.646 325.131 144.677 324.228C143.773 298.072 143.023 242.08 140.424 199.57C140.492 195.531 140.659 191.503 141.021 187.503L141.372 177.082C143.821 180.683 143.968 191.945 144.186 197.212C144.537 205.561 144.769 213.679 145.199 221.977C146.11 239.561 147.317 257.561 150.803 274.488C152.458 282.52 156.875 294.2 163.963 292.777L163.966 292.785Z"/>
<path fill="#50A393" d="M149.627 145.504C142.877 164.035 138.064 241.851 135.366 292.572C134.711 304.901 134.179 315.635 133.777 323.522C127.797 324.3 121.675 323.811 115.197 323.44C114.167 303.215 114.662 230.03 114.662 211.995C114.662 203.729 115.995 193.378 116.93 184.474C117.131 182.574 117.312 180.74 117.459 179.008C117.844 174.452 121.794 154.748 120.256 153.352L149.631 145.496L149.627 145.504Z"/>
<path fill="#3E7F73" d="M135.366 292.571C134.711 304.9 134.179 315.634 133.777 323.521C127.797 324.299 121.675 323.811 115.197 323.439C114.167 303.215 114.662 230.029 114.662 211.995C114.662 203.728 115.995 193.378 116.93 184.474L124.594 172.27C125.645 181.15 122.851 193.186 122.497 202.825C122.046 215.037 122.111 227.405 121.797 239.617C121.559 249.002 121.378 258.7 121.777 268.081C122.057 274.677 122.357 282.13 126.419 287.319C128.855 290.432 132.023 291.836 135.366 292.567V292.571Z"/>
<path fill="#71D3C0" d="M193.516 66.813L178.505 51.3672C176.274 52.6341 173.446 52.552 170.881 52.857C172.126 60.1889 118.66 132.475 114.403 162.608C112.714 174.57 153.189 183.982 163.179 185.621C164.844 185.147 169.24 140.847 174.135 130.853C187.479 103.59 195.061 67.7671 193.516 66.813Z"/>
<path fill="#FFB278" d="M187.87 34.1456C186.97 37.4342 185.431 40.5547 183.617 43.5187C181.229 47.429 178.644 50.1467 175.625 52.2622C175.843 70.0229 186.291 82.6338 186.291 82.6338C186.291 82.6338 192.178 74.8874 194.041 65.7138C194.088 65.4831 194.276 65.3071 194.406 65.0881C195.367 63.4536 196.64 61.3576 197.267 60.3058L188.262 33.4652L188.136 33.082C188.054 33.4379 187.966 33.7898 187.87 34.1417V34.1456Z"/>
<path fill="#E5804E" d="M187.87 34.1452C186.97 37.4338 187.372 37.4925 185.558 40.4565C179.623 57.2514 192.656 65.5178 194.406 65.0877C195.367 63.4532 196.64 61.3572 197.267 60.3054L188.262 33.4648C188.133 33.6877 188 33.9145 187.867 34.1413L187.87 34.1452Z"/>
<path fill="#DFEAE8" d="M194.235 65.2344C193.683 65.4299 168.633 143.949 167.545 161.867C171.907 144.364 195.596 86.3736 195.596 86.3736C195.596 86.3736 194 81.7164 193.577 78.244C194.634 78.334 198.049 76.2341 199.116 76.1716C199.133 72.7891 194.235 65.2344 194.235 65.2344Z"/>
<path fill="white" d="M154.255 137.736C151.444 144.443 148.484 151.016 145.496 157.347C131.385 187.265 132.002 221.132 129.737 228.124C109.603 225.246 102.965 217.605 96.6582 210.621C106.471 154.781 125.071 121.993 143.753 61.9072C148.037 48.1311 158.178 51.6034 169.498 51.6621L172.34 52.405C175.839 77.0949 166.456 108.64 154.258 137.74L154.255 137.736Z"/>
<path fill="#DFEAE8" d="M162.012 121.443C159.716 127.606 157.319 133.542 154.9 139.02C151.673 146.332 148.406 152.823 145.295 157.93C147.962 150.325 150.323 142.985 152.386 135.982C155.197 126.436 157.455 117.517 159.181 109.423C163.748 88.0175 164.621 72.3644 162.275 66.0218C164.321 65.228 166.661 64.9699 168.544 63.8985C167.343 59.9725 166.04 55.636 165.153 51.6905C168.534 51.4324 179.387 48.8594 179.387 48.8594C179.585 65.2163 171.716 95.3571 162.005 121.443H162.012Z"/>
<path fill="#DFEAE8" d="M119.41 155.945C118.11 158.104 116.702 160.188 115.293 162.28C119.069 165.381 123.493 167.95 128.224 169.796C129.52 170.3 130.843 170.754 132.177 171.145C133.432 168.842 134.653 166.515 135.806 164.13C129.687 162.702 123.895 159.793 119.407 155.945H119.41Z"/>
<path fill="#8C8C8C" d="M168.645 97.4035L166.742 96.3947L168.461 88.7695L173.121 91.233L168.645 97.4035Z"/>
<path fill="white" d="M162.48 92.9639L159.549 100.246L170.767 106.18L173.698 98.8979L162.48 92.9639Z"/>
<path fill="#8C8C8C" d="M170.88 106.53L159.238 100.371L162.363 92.6055L174.004 98.7642L170.88 106.53ZM159.856 100.109L170.651 105.818L173.387 99.0223L162.591 93.3132L159.856 100.109Z"/>
<path fill="#8C8C8C" d="M163.195 96.2838L162.902 97.0117L170.735 101.155L171.028 100.427L163.195 96.2838Z"/>
<path fill="#2B3F44" d="M168.185 74.3948C168.888 63.4771 172.288 55.1794 178.101 50.2758C178.496 49.9435 178.998 49.6072 179.544 49.2943C179.81 48.8681 180.198 48.3832 180.222 47.9844C178.998 48.3676 178.114 48.958 177.558 49.4273C174.182 52.2779 171.572 56.2508 169.799 61.2404C168.427 65.1038 167.578 69.5186 167.268 74.3948C167.575 74.3557 167.882 74.3557 168.189 74.3948H168.185Z"/>
<path fill="#C6C6C6" d="M171.975 77.2927C171.566 79.7953 169.461 81.4376 167.282 80.9684C165.102 80.4991 163.666 78.0865 164.076 75.5878C164.485 73.0851 166.589 71.4428 168.769 71.912C170.949 72.3813 172.385 74.794 171.975 77.2927Z"/>
<path fill="#9B9B9B" d="M170.751 77.032C170.468 78.7564 169.019 79.8904 167.514 79.5659C166.01 79.2413 165.021 77.5794 165.304 75.8549C165.587 74.1305 167.037 72.9965 168.541 73.321C170.045 73.6456 171.035 75.3075 170.751 77.032Z"/>
<path fill="#C6C6C6" d="M169.746 76.8116C169.568 77.8987 168.654 78.6143 167.706 78.407C166.758 78.2037 166.134 77.1557 166.314 76.0686C166.492 74.9816 167.406 74.266 168.354 74.4732C169.302 74.6766 169.927 75.7245 169.746 76.8116Z"/>
<path fill="#2B3F44" d="M194.019 62.7414C195.093 68.341 194.135 74.3277 191.242 80.377L192.034 80.6468C192.815 78.9888 193.459 77.323 193.961 75.665C195.328 71.1369 195.618 66.7221 194.817 62.5419C194.687 61.8576 194.397 60.8683 193.773 59.7852C193.585 60.0667 193.596 60.6493 193.558 61.1186C193.763 61.6934 193.927 62.2565 194.019 62.7453V62.7414Z"/>
<path fill="#9B9B9B" d="M182.681 97.4988C181.402 97.4284 180.781 96.8341 180.481 96.2983C179.796 95.0783 180.072 93.1075 181.279 90.6049C182.009 89.0916 183.421 86.9996 184.452 85.4706C184.956 84.7237 185.478 83.9534 185.533 83.797C185.516 83.8439 185.512 83.9456 185.574 84.0316L185.963 83.6758C186.113 83.8908 185.966 84.1137 185.679 84.5634C185.478 84.8802 185.185 85.3142 184.847 85.8147C183.827 87.328 182.429 89.4005 181.716 90.8747C180.618 93.1505 180.328 94.9649 180.901 95.9855C181.303 96.7011 182.163 97.0217 183.387 96.9123L183.425 97.4793C183.155 97.5027 182.906 97.5066 182.681 97.4949V97.4988Z"/>
<path fill="#1C1818" d="M184.805 97.3235C184.782 97.8748 184.229 98.2893 183.567 98.2541C182.906 98.2189 182.387 97.7458 182.411 97.1984C182.435 96.6509 182.987 96.2325 183.649 96.2677C184.311 96.3029 184.829 96.776 184.805 97.3274V97.3235Z"/>
<path fill="#9B9B9B" d="M187.29 99.306C188.239 100.291 189.047 100.373 189.589 100.237C190.828 99.9277 191.844 98.3088 192.53 95.5599C192.946 93.8941 193.236 91.2741 193.447 89.3581C193.549 88.4235 193.659 87.4537 193.713 87.3012C193.696 87.3482 193.635 87.4225 193.539 87.4342L193.485 86.8711C193.249 86.9024 193.212 87.1761 193.137 87.7275C193.086 88.1146 193.024 88.6581 192.956 89.2877C192.748 91.1842 192.458 93.7846 192.056 95.4074C191.431 97.9061 190.521 99.4272 189.484 99.6853C188.757 99.8651 187.952 99.3959 187.154 98.3284L186.775 98.6959C186.953 98.9306 187.123 99.1339 187.29 99.3099V99.306Z"/>
<path fill="#1C1818" d="M185.895 97.4613C185.574 97.868 185.708 98.6109 186.199 99.1232C186.69 99.6315 187.348 99.7175 187.669 99.3109C187.989 98.9042 187.856 98.1612 187.365 97.649C186.874 97.1367 186.216 97.0546 185.895 97.4613Z"/>
<path fill="#2B3F44" d="M193.705 89.8743C193.671 89.8665 193.641 89.8469 193.61 89.8548C192.965 90.0307 192.808 89.8352 192.392 89.9056C192.484 89.2956 192.532 88.7247 192.542 88.189C192.648 83.0938 189.305 81.4984 186.171 84.6345C185.72 85.0841 185.277 85.6277 184.847 86.2768C184.36 85.8036 184.445 85.9131 183.943 85.4595C185.451 82.8396 190.506 77.2909 192.471 77.8657C194.896 78.5734 193.907 86.6483 193.709 89.8743H193.705Z"/>
<g opacity="0.5" style="mix-blend-mode:color-dodge">
<path fill="#1D6693" d="M192.542 88.1908C192.647 83.0956 189.305 81.5002 186.17 84.6363C187.691 82.4935 191.027 78.7356 192.17 79.0719C193.797 79.5451 192.784 87.3892 192.545 88.1947L192.542 88.1908Z"/>
<path fill="#FF981D" d="M192.285 89.0898C192.285 89.1172 192.285 89.1485 192.274 89.1798C192.077 89.7429 192.13 89.5552 192.285 89.0898Z"/>
</g>
<path fill="#3A1818" d="M226.061 34.2081C227.129 29.7699 225.782 23.0128 221.218 21.9648L214.379 26.4813C216.101 28.1041 217.363 30.028 218.008 32.5188C218.523 34.517 218.926 36.9805 218.639 39.0452C218.199 42.2243 216.947 45.5754 215.409 48.1602C215.927 47.8239 216.364 47.3546 216.835 46.9753C220.628 43.9292 224.786 39.4988 226.058 34.2081H226.061Z"/>
<path fill="#FFB278" d="M209.989 51.701C210.647 50.5435 211.711 49.1945 211.711 49.1945C213.509 46.86 217.121 46.5745 217.639 48.8738C218.161 51.1809 216.807 53.8321 215.531 55.146C214.276 56.4442 211.339 58.2469 209.733 56.4872C208.358 54.9857 209.283 52.9406 209.989 51.701Z"/>
<path fill="#E5804E" d="M212.407 50.0032C212.581 49.7334 213.625 49.1469 213.888 48.9865C215.907 47.7548 217.367 49.5887 216.388 51.7824C216.681 49.491 214.822 50.1909 213.642 50.7227C214.222 51.1177 213.819 52.5997 213.434 53.0337C212.755 53.7962 212.005 53.5421 211.258 53.2175L211.302 53.1471C211.759 52.5488 212.895 52.1461 212.881 50.9691C212.875 50.3239 212.083 50.5077 212.407 50.0032Z"/>
<path fill="#FFB278" d="M218.499 41.3743C223.739 32.2163 221.539 16.708 210.467 13.6618C208.12 13.0166 203.815 13.3294 201.52 14.7059C201.52 14.7059 197.208 19.2692 191.618 28.5367C188.589 33.5537 188.453 34.7072 185.533 41.5229C182.03 49.7034 188.333 61.6299 195.401 64.3632C200.5 66.334 205.442 60.2534 208.158 57.9933C211.974 54.8181 215.972 45.793 218.499 41.3783V41.3743Z"/>
<path fill="white" d="M198.588 44.071C198.513 44.0358 198.441 43.9928 198.366 43.9497L193.86 41.2008C192.117 40.1372 191.609 37.3217 192.717 34.9051C193.024 33.8572 193.795 31.4797 194.617 31.0808C195.903 30.4552 197.847 30.6937 199.949 31.7378C202.326 32.9187 204.908 35.1906 205.307 37.6033C205.474 38.6043 204.175 40.6572 203.581 41.5332C202.497 43.8129 200.31 44.9234 198.588 44.0671V44.071ZM199.594 32.6802C197.752 31.7651 196.029 31.5227 194.986 32.0271C194.689 32.1757 194.027 33.6968 193.57 35.2766L193.556 35.3157L193.539 35.3548C192.639 37.2787 192.973 39.4959 194.283 40.2936L198.789 43.0425C200.105 43.8442 201.903 42.9135 202.797 41.0014L202.838 40.931C203.735 39.6171 204.471 38.1429 204.417 37.7792C204.13 36.043 202.145 33.9432 199.594 32.6763V32.6802Z"/>
<path fill="white" d="M211.198 52.0062C211.133 51.9749 211.068 51.9358 211.003 51.8967L207.043 49.4176C205.512 48.4595 205.157 45.7184 206.248 43.294C206.566 42.2499 207.347 39.8803 208.104 39.4501C209.288 38.7736 211.031 38.9144 212.886 39.8333C214.991 40.8774 217.232 42.9812 217.501 45.3313C217.614 46.3089 216.365 48.3852 215.799 49.2729C214.738 51.5604 212.722 52.7609 211.201 52.0062H211.198ZM212.528 40.7757C210.897 39.9663 209.356 39.8099 208.397 40.3612C208.124 40.5216 207.473 42.0466 206.999 43.6225L206.985 43.6616L206.968 43.7007C206.085 45.6324 206.303 47.7909 207.456 48.5143L211.416 50.9934C212.576 51.7208 214.23 50.7158 215.107 48.7958L215.148 48.7215C216.004 47.3881 216.723 45.9061 216.689 45.5503C216.495 43.8571 214.786 41.8941 212.531 40.7757H212.528Z"/>
<path fill="white" d="M207.217 41.0867C207.098 40.289 206.818 39.7259 206.382 39.4209C205.935 39.1042 205.318 39.0612 204.69 39.2919L204.451 38.3221C205.314 38.0015 206.184 38.0836 206.839 38.5411C207.289 38.8578 207.866 39.5226 208.07 40.8834L207.217 41.0867Z"/>
<path fill="#3A1818" d="M225.147 24.55C225.096 24.6869 225.038 24.816 224.969 24.9372C224.611 25.6058 224.062 26.0125 223.677 26.4114C222.036 28.1085 219.413 29.9346 217.165 30.2748C211.408 31.1429 206.278 24.4953 200.827 26.0946C201.383 23.4982 203.702 23.2675 205.391 22.3603C201.724 20.4716 198.801 24.4484 196.492 27.213C195.018 28.9805 193.21 30.1223 191.866 31.9562C190.754 33.4734 189.151 37.6458 187.555 38.3692L187.436 29.4301C187.957 26.5482 188.227 23.5686 189.428 19.9124C190.553 16.4635 192.572 12.6118 195.172 10.1991C196.822 8.67019 198.712 7.61049 200.701 6.98483C204.5 5.78827 208.658 6.18322 212.185 7.93113C217.135 10.3751 221.695 13.9179 224.27 19.4471C224.673 20.3073 224.946 21.0542 225.113 21.6955C225.454 22.9859 225.392 23.8814 225.147 24.5461V24.55Z"/>
<path fill="#140808" d="M225.147 24.5496C225.085 24.6825 225.031 24.8077 224.969 24.9367C224.611 25.6054 224.062 26.0121 223.677 26.4109C222.036 28.108 219.413 29.9341 217.165 30.2743C211.408 31.1424 206.278 24.4948 200.827 26.0942C201.383 23.4977 203.702 23.267 205.391 22.3598C201.724 20.4711 198.801 24.4479 196.492 27.2125C195.018 28.98 193.21 30.1218 191.866 31.9558C190.754 33.473 189.151 37.6453 187.555 38.3687L187.436 29.4297C187.957 26.5478 188.227 23.5681 189.428 19.9119C190.553 16.463 192.572 12.6113 195.172 10.1987C196.822 8.66973 198.712 7.61003 200.701 6.98438C198.627 9.54955 195.663 14.7777 196.577 18.3087C197.992 15.5324 202.181 17.249 204.023 18.254C205.759 19.2003 207.332 20.3303 209.02 21.2962C210.507 22.1486 212.366 22.2308 213.727 23.2357C212.881 23.5055 211.779 23.5212 211.053 24.2524C211.667 25.6171 214.031 26.2545 215.231 26.6142C216.892 27.1109 218.526 27.0366 220.17 26.583C222.739 25.8752 224.031 23.963 225.113 21.695C225.454 22.9855 225.392 23.8809 225.147 24.5457V24.5496Z"/>
<path fill="#FFB278" d="M189.043 36.5661C189.619 35.2444 190.127 33.3948 190.127 33.3948C191.035 30.2352 189.312 26.2663 187.187 26.9584C185.052 27.6544 183.65 30.5168 183.282 32.5697C182.92 34.5992 183.053 38.6698 185.335 39.4206C187.283 40.0619 188.429 37.9816 189.043 36.5661Z"/>
<path fill="#E5804E" d="M189.105 33.0959C189.228 32.7635 189.136 31.3441 189.122 30.9804C189.023 28.1845 186.762 27.6293 185.523 29.8464C187.205 28.2979 187.648 30.6402 187.86 32.177C187.229 31.7781 186.253 33.0021 186.114 33.6433C185.868 34.7734 186.475 35.4265 187.14 36.0404L187.171 35.9544C187.403 35.1488 187.116 33.7333 188.068 33.1115C188.59 32.7713 188.87 33.7059 189.102 33.092L189.105 33.0959Z"/>
<path fill="#DFEAE8" d="M147.477 59.6447C147.462 59.5743 147.447 59.5118 147.428 59.457L147.477 59.6447Z"/>
<path fill="#DFEAE8" d="M162.012 121.443C159.717 127.606 157.319 133.542 154.901 139.02C154.01 138.105 153.171 137.085 152.387 135.982C147.359 128.94 144.514 118.675 143.549 111.132C142.365 101.868 142.287 92.0925 143.078 82.6725C143.511 77.4796 147.959 62.4561 147.472 59.6445L159.185 109.427L162.012 121.447V121.443Z"/>
<path fill="#FFB278" d="M186.364 156.736C184.495 153.803 182.816 151.027 181.357 147.809C180.402 145.705 179.109 142.225 177.963 140.766L164.391 140.027C167.675 146.225 170.179 153.268 174.453 158.687C177.891 163.047 181.261 167.873 185.399 171.466C187.203 173.034 187.721 173.187 189.881 172.393C191.658 171.74 193.732 170.97 194.942 169.292C192.046 165.159 189.099 161.038 186.364 156.736Z"/>
<path fill="white" d="M214.418 173.173C214.486 171.695 213.48 170.925 212.399 170.628C214.476 170.768 212.44 168.704 210.598 168.364C208.858 168.039 205.707 167.003 203.888 166.663C201.9 166.287 200.13 165.982 198.093 166.373C193.475 167.253 191.534 164.293 191.534 164.293C191.248 164.844 191.319 169.537 190.473 170.104C189.051 171.058 187.209 172.078 185.568 172.239C186.714 174.921 190.446 177.221 192.943 177.733C196.616 178.484 200.365 177.615 204.083 178.601C206.01 179.109 207.504 179.105 209.418 178.714C210.779 178.433 213.309 178.288 214.22 177.005C213.797 175.825 212.204 176.399 211.532 175.742C212.607 175.86 214.387 176.219 215.407 175.672C217.177 174.718 215.629 173.521 214.418 173.181V173.173Z"/>
<path fill="white" d="M179.367 167.531C182.001 166.327 187.083 163.816 189.593 156.696C182.205 147.037 174.128 128.459 170.779 105.357C169.22 94.6192 166.01 81.7816 164.294 71.0751C163.213 64.3219 162.122 53.3691 156.238 52.6692C150.023 51.9301 143.188 59.7703 143.188 72.2717C143.188 86.5796 158.523 148.144 179.367 167.531Z"/>
<path fill="#F91510" d="M214.883 172.288C214.961 173.027 215.985 173.516 216.387 172.793C216.994 171.706 215.163 172.093 214.883 172.288Z"/>
<path fill="#F91510" d="M218.433 171.18C218.426 171.129 218.426 171.078 218.433 171.027V171.18Z"/>
<path fill="#D0D7E2" d="M323.387 243.366H243.049C252.63 239.495 263.702 178.048 267.901 161.206C273.505 138.718 291.91 128.582 306.724 134.069C310.244 135.371 313.56 137.557 316.452 140.665C334.946 160.542 328.438 230.497 323.383 243.366H323.387Z"/>
<path fill="white" d="M323.386 243.368H302.307C311.144 222.655 315.292 197.062 315.292 174.456C315.292 163.726 314.664 153.004 311.086 143.318C310.316 141.23 308.74 137.652 306.724 134.07C310.244 135.372 313.559 137.558 316.452 140.667C334.946 160.543 328.438 230.499 323.383 243.368H323.386Z"/>
<path fill="#425B28" d="M302.859 197.03C302.859 197.295 302.859 197.554 302.859 197.808C302.859 197.929 302.859 198.054 302.859 198.171C302.859 198.504 302.853 198.832 302.849 199.157C302.849 199.301 302.849 199.442 302.842 199.583C302.839 199.9 302.832 200.213 302.829 200.518C302.822 200.924 302.812 201.319 302.801 201.706C302.788 202.258 302.771 202.797 302.75 203.313C302.743 203.54 302.733 203.767 302.723 203.99C302.709 204.271 302.699 204.549 302.685 204.819C302.682 204.94 302.675 205.061 302.668 205.179C302.658 205.374 302.648 205.566 302.638 205.75C302.627 205.937 302.617 206.125 302.607 206.309C302.593 206.493 302.587 206.672 302.573 206.852C302.559 207.028 302.549 207.204 302.535 207.38C302.535 207.439 302.529 207.497 302.522 207.556C302.498 207.873 302.474 208.178 302.45 208.475C302.426 208.772 302.399 209.066 302.372 209.347C302.314 209.969 302.252 210.555 302.184 211.107C302.167 211.247 302.15 211.38 302.133 211.513C302.126 211.564 302.119 211.619 302.112 211.67V211.685C301.843 213.727 301.515 215.318 301.154 216.64C301.127 216.742 301.099 216.835 301.072 216.933C301.014 217.129 300.956 217.324 300.898 217.516C297.555 218.443 294.052 219.049 290.467 219.346H290.464C289.782 219.217 289.096 219.096 288.414 218.982C288.209 218.947 288.001 218.912 287.79 218.88C287.479 218.83 287.166 218.779 286.859 218.732C286.596 218.689 286.333 218.65 286.067 218.611C285.996 218.599 285.924 218.587 285.852 218.575C285.256 218.486 284.652 218.403 284.055 218.321C282.806 218.153 281.558 218.005 280.303 217.868C280.071 217.844 279.836 217.817 279.604 217.793C275.596 217.383 271.571 217.203 267.549 217.199C261.911 215.662 256.488 213.383 251.59 210.379C251.753 209.398 251.903 208.393 252.043 207.361C252.067 207.185 252.091 207.001 252.115 206.821C252.265 205.679 252.401 204.514 252.524 203.321C252.558 202.989 252.592 202.656 252.623 202.324C252.688 201.659 252.746 200.983 252.804 200.302C252.835 199.962 252.858 199.622 252.886 199.282C252.93 198.691 252.974 198.093 253.009 197.491C253.015 197.401 253.022 197.303 253.026 197.213C253.046 196.881 253.067 196.552 253.087 196.22C253.125 195.504 253.162 194.785 253.193 194.065C253.206 193.784 253.217 193.506 253.227 193.225C253.244 192.799 253.258 192.372 253.271 191.946C253.295 191.238 253.312 190.531 253.326 189.819C253.333 189.463 253.339 189.107 253.343 188.755C253.343 188.708 253.343 188.661 253.343 188.614C253.35 187.95 253.356 187.285 253.356 186.624C253.36 177.02 252.569 167.569 250.918 160.64C249.096 152.995 248.38 145.222 247.742 137.397C247.234 131.16 248.697 127.359 251.566 123.981C252.268 123.152 253.06 122.346 253.923 121.537C254.168 121.31 254.414 121.079 254.673 120.856C255.294 120.297 255.945 119.738 256.631 119.159L256.767 119.057L256.805 119.034L256.877 118.979L259.793 116.805L266.192 112.038L269.146 109.829L274.818 105.606L275.357 105.203L275.432 105.145C276.442 106.157 277.639 107.252 278.918 108.3C280.269 109.411 281.712 110.474 283.131 111.342C284.56 112.21 286.265 112.711 287.93 113.239C288.864 113.532 289.785 113.841 290.638 114.224C291.289 114.518 291.9 114.858 292.446 115.276C295.553 117.658 297.487 123.288 298.623 128.743C299.336 132.145 299.735 135.485 299.919 137.917C300.393 144.197 300.803 149.969 301.151 155.275C302.419 174.588 302.9 187.774 302.87 197.018L302.859 197.03Z"/>
<path fill="#FFB278" d="M275.616 122.375C267.941 129.081 264.885 130.88 261.976 131.42C260.205 131.748 259.418 126.102 258.282 123.184C256.733 119.2 255.321 114.636 253.772 112.02C253.387 111.363 252.991 110.832 252.582 110.46L264.892 98.1935L270.633 92.4727C270.967 93.5441 271.301 94.6312 271.632 95.73C274.419 104.99 282.503 116.357 275.616 122.375Z"/>
<path fill="#E5804E" d="M267.292 114.466C265.031 118.232 261.48 119.476 257.087 119.82C255.538 115.835 255.317 114.639 253.771 112.023L264.891 98.1956L271.116 90.4531C271.126 92.2832 271.358 94.0193 271.631 95.7321C272.075 98.4967 269.523 110.756 267.292 114.466Z"/>
<path fill="#6B8E43" d="M278.885 108.13C277.684 107.16 275.395 103.891 274.532 103.223C277.165 117.679 261.977 131.42 261.977 131.42C264.347 133.047 272.857 123.83 274.617 126.051C277.534 129.731 280.188 126.071 282.128 126.071C282.418 118.594 278.949 109.248 278.885 108.134V108.13Z"/>
<path fill="#6B8E43" d="M262.814 131.764C258.966 131.217 260.092 124.467 256.49 118.312C255.088 119.767 254.44 119.454 253.877 121.679C254.89 125.543 253.004 127.431 253.669 131.682C254.9 128.972 262.814 131.764 262.814 131.764Z"/>
<path fill="#6B8E43" d="M265.122 141.906C265.282 142.461 265.019 143.064 264.531 143.247C264.047 143.431 263.522 143.13 263.361 142.571C263.201 142.016 263.464 141.413 263.952 141.23C264.436 141.046 264.961 141.347 265.122 141.902V141.906Z"/>
<path fill="#6B8E43" d="M270.616 168.215C270.776 168.77 270.513 169.372 270.026 169.556C269.541 169.74 269.016 169.439 268.856 168.883C268.695 168.328 268.958 167.726 269.446 167.542C269.93 167.358 270.455 167.66 270.616 168.215Z"/>
<path fill="#6B8E43" d="M273.587 193.008C273.747 193.563 273.485 194.165 273 194.349C272.516 194.533 271.991 194.232 271.83 193.676C271.67 193.121 271.933 192.519 272.417 192.335C272.901 192.151 273.427 192.452 273.587 193.008Z"/>
<path fill="#6B8E43" d="M263.947 131.31C263.967 131.463 263.919 131.627 263.766 131.74C263.507 131.924 263.251 132.108 263.019 132.335C260.839 134.446 260.734 137.868 260.802 140.898C260.88 144.464 261.334 147.995 261.985 151.48C263.312 158.581 265.294 165.498 266.539 172.623C267.712 179.333 267.951 186.25 268.159 193.082C268.299 197.809 268.047 209.403 267.525 217.208C267.023 217.208 266.522 217.208 266.021 217.22C266.747 208.535 267.436 194.368 267.15 188.44C266.982 185.042 266.89 181.597 266.522 178.222C266.126 174.578 265.448 170.988 264.666 167.434C263.152 160.548 261.259 153.716 260.41 146.662C259.799 141.606 257.555 134.708 261.907 131.482H261.914C261.938 131.459 261.958 131.443 261.985 131.423L263.316 130.954C263.462 130.849 263.613 130.864 263.725 130.939C263.848 131.017 263.933 131.161 263.954 131.314L263.947 131.31Z"/>
<path fill="#685851" d="M244.527 78.1652L238.227 77.0547C235.931 77.6686 237.132 85.282 237.742 87.0573C238.697 89.8258 241.177 93.6932 243.735 94.9523C243.125 92.5083 242.504 90.0135 242.623 87.4288C242.688 86.0367 243.541 78.4702 244.527 78.1691V78.1652Z"/>
<path fill="#381E1A" d="M290.632 114.235C280.911 120.656 281.774 134.432 282.542 146.664C282.6 147.594 282.658 148.517 282.712 149.424C283.033 154.989 283.534 160.757 284.015 166.329C285.277 180.864 286.58 195.891 285.079 210.258C284.916 211.822 284.544 213.675 284.186 215.466C283.896 216.917 283.602 218.391 283.422 219.685C283.278 220.698 283.21 221.598 283.272 222.274L281.102 222.524C281.027 221.668 281.089 220.659 281.235 219.545C281.419 218.121 281.737 216.538 282.064 214.903C282.409 213.175 282.767 211.388 282.917 209.956C284.39 195.868 283.098 180.973 281.846 166.575C281.361 160.98 280.86 155.192 280.536 149.585C280.485 148.682 280.427 147.763 280.365 146.84C279.939 140.001 279.496 132.931 280.71 126.541C281.822 120.687 284.196 116.304 287.924 113.246C288.859 113.543 289.78 113.848 290.632 114.232V114.235Z"/>
<path fill="#381E1A" d="M257.497 165.425C259.834 179.784 262.252 194.632 261.822 209.088C261.778 210.664 261.546 212.545 261.321 214.363C261.103 216.142 260.877 217.961 260.836 219.423C260.816 220.123 260.836 220.745 260.915 221.238L258.773 221.703C258.664 221.058 258.633 220.311 258.653 219.494C258.688 217.879 258.92 215.982 259.162 214.015C259.377 212.256 259.598 210.441 259.643 209.002C260.062 194.819 257.668 180.109 255.352 165.883C254.451 160.354 253.523 154.641 252.783 149.084C252.664 148.189 252.538 147.278 252.411 146.363C251.477 139.59 250.512 132.59 251.245 126.103C251.327 125.376 251.429 124.672 251.555 123.988C252.258 123.155 253.049 122.353 253.912 121.544C254.154 121.317 254.403 121.09 254.659 120.863C252.108 128.176 253.39 137.455 254.567 145.972C254.693 146.894 254.82 147.805 254.939 148.705C255.672 154.218 256.6 159.916 257.497 165.422V165.425Z"/>
<path fill="#FFB278" d="M272.291 90.3254C272.461 92.8163 272.393 95.2446 272.093 97.4813C271.226 103.949 266.782 115.336 259.165 116.963C254.277 118.007 251.054 113.49 248.319 108.907C246.057 105.122 244.492 100.649 243.543 97.536C242.537 94.2318 240.521 83.3024 240.259 79.7714C239.215 65.7411 258.978 64.0949 264.323 69.8274C269.217 75.079 271.799 82.9779 272.297 90.3293L272.291 90.3254Z"/>
<path fill="#87756C" d="M271.353 96.1766C270.299 93.9517 269.518 91.5781 268.887 89.2202C268.164 86.5142 269.535 85.2473 267.168 84.6451C262.583 83.4759 264.473 73.4498 260.629 72.7928C257.682 72.2884 252.258 77.0512 247.93 78.6623C244.956 79.7689 239.566 80.985 237.172 78.6505C237.172 78.6505 234.375 74.4196 234.74 68.4289C234.754 68.2099 234.788 68.0027 234.842 67.8033C235.627 64.8979 240.528 64.1588 242.779 63.6309C250.608 61.797 254.1 61.9299 259.947 61.0814C264.541 60.4166 269.054 63.5449 271.97 67.8619C273.021 69.4182 273.867 71.1231 274.433 72.8632C276.814 80.1873 274.249 89.142 271.356 96.1727L271.353 96.1766Z"/>
<path fill="#685851" d="M271.353 96.1781C270.299 93.9531 269.518 91.5795 268.887 89.2216C268.164 86.5156 269.535 85.2487 267.168 84.6465C262.583 83.4773 264.473 73.4512 260.629 72.7943C257.682 72.2898 252.258 77.0526 247.93 78.6637C244.956 79.7703 239.566 80.9864 237.172 78.652C237.172 78.652 234.375 74.421 234.74 68.4303C234.754 68.2114 234.788 68.0041 234.842 67.8047C235.616 69.1146 236.827 70.2838 237.629 70.8978C240.484 73.0836 244.413 72.8568 247.623 72.0552C252.402 70.8665 257.024 67.574 261.983 68.7236C263.494 69.0755 265.087 70.3034 266.298 71.4413C267.301 72.3876 267.833 74.4601 269.194 73.8618C271.244 72.9624 271.882 70.4715 271.967 67.8633C273.017 69.4197 273.863 71.1246 274.43 72.8647C276.81 80.1887 274.245 89.1434 271.353 96.1742V96.1781Z"/>
<path fill="#FFB278" d="M270.296 94.165C270.201 92.6439 270.296 90.6418 270.296 90.6418C270.426 87.2085 272.786 84.1624 274.239 85.7695C275.699 87.3845 276.027 90.7474 275.771 92.8824C275.518 94.9901 274.352 98.8379 272.401 98.5446C270.736 98.2943 270.402 95.7956 270.296 94.165Z"/>
<path fill="#E5804E" d="M271.16 90.8062C271.149 90.4347 271.593 89.1131 271.699 88.7689C272.507 86.1295 274.39 86.5987 274.758 89.2734C273.871 87.0445 272.916 89.0974 272.353 90.4738C272.944 90.3722 273.37 91.9793 273.309 92.6519C273.203 93.8446 272.565 94.2043 271.893 94.4976V94.4037C271.924 93.5278 272.514 92.2961 271.944 91.2794C271.63 90.7202 271.173 91.4944 271.156 90.8062H271.16Z"/>
<g opacity="0.4" style="mix-blend-mode:multiply">
<path fill="#425B28" d="M302.86 197.028C302.86 197.294 302.86 197.552 302.86 197.806C302.86 197.928 302.86 198.053 302.86 198.17C302.86 198.503 302.853 198.831 302.849 199.156C302.849 199.3 302.849 199.441 302.842 199.582C302.839 199.899 302.832 200.211 302.829 200.516C302.822 200.923 302.812 201.318 302.802 201.705C302.788 202.256 302.771 202.796 302.75 203.312C302.744 203.539 302.733 203.766 302.723 203.989C302.713 204.27 302.703 204.548 302.686 204.818C302.682 204.939 302.675 205.06 302.669 205.177C302.658 205.373 302.648 205.565 302.638 205.748C302.628 205.936 302.617 206.124 302.607 206.308C302.593 206.491 302.587 206.671 302.573 206.851C302.559 207.027 302.549 207.203 302.535 207.379C302.535 207.438 302.529 207.496 302.522 207.555C302.498 207.872 302.474 208.177 302.45 208.474C302.426 208.771 302.402 209.064 302.372 209.346C302.314 209.968 302.252 210.554 302.184 211.106C302.167 211.246 302.15 211.379 302.133 211.512C302.126 211.571 302.119 211.63 302.113 211.684C301.843 213.725 301.516 215.317 301.154 216.639C301.127 216.74 301.099 216.834 301.072 216.932C301.014 217.127 300.956 217.323 300.898 217.515C297.556 218.441 294.053 219.047 290.468 219.345H290.464C289.782 219.216 289.096 219.094 288.414 218.981C288.21 218.946 288.002 218.911 287.79 218.879C287.48 218.828 287.166 218.778 286.859 218.731C286.596 218.688 286.334 218.649 286.068 218.609C285.996 218.598 285.924 218.586 285.853 218.574C285.256 218.484 284.652 218.402 284.055 218.32C282.807 218.152 281.558 218.003 280.303 217.866C280.071 217.843 279.836 217.816 279.604 217.792C275.596 217.382 271.571 217.202 267.55 217.198C261.911 215.661 256.488 213.381 251.59 210.378C251.754 209.397 251.904 208.392 252.044 207.359C252.067 207.183 252.091 207 252.115 206.82C252.265 205.678 252.402 204.513 252.524 203.32C252.559 202.988 252.593 202.655 252.623 202.323C252.688 201.658 252.746 200.982 252.804 200.301C252.835 199.961 252.859 199.621 252.886 199.281C252.93 198.69 252.975 198.092 253.009 197.49C253.016 197.4 253.022 197.302 253.026 197.212C253.046 196.88 253.067 196.551 253.087 196.219C253.125 195.503 253.162 194.784 253.193 194.064C253.207 193.783 253.217 193.505 253.227 193.224C253.244 192.797 253.258 192.371 253.271 191.945C253.295 191.237 253.312 190.529 253.326 189.818C253.333 189.462 253.34 189.106 253.343 188.754C253.343 188.707 253.343 188.66 253.343 188.613C253.35 187.949 253.357 187.284 253.357 186.623C257.583 187.655 262.126 188.265 266.427 188.081C274.501 187.737 278.328 189.833 284.604 183.635C289.042 179.256 285.962 158.852 287.026 152.521C288.22 145.451 295.901 149.142 296.706 141.963C297.163 137.9 297.866 133.771 298.47 129.731C298.517 129.411 298.569 129.078 298.623 128.746C299.336 132.148 299.735 135.488 299.919 137.92C300.393 144.2 300.803 149.971 301.151 155.278C302.42 174.591 302.9 187.776 302.87 197.021L302.86 197.028Z"/>
</g>
<path fill="#7A3920" d="M302.206 210.41C302.161 210.859 302.131 211.282 302.11 211.681V211.696C302.011 213.698 302.137 215.173 301.486 217.362C301.291 217.417 301.09 217.476 300.892 217.527C297.55 218.453 294.047 219.059 290.462 219.357H290.458C282.93 219.99 275.044 219.259 267.544 217.21C261.905 215.673 256.482 213.393 251.584 210.39C251.495 210.339 251.403 210.285 251.314 210.23L252.481 203.266C252.495 203.289 252.505 203.309 252.519 203.328C256.636 210.187 282.231 215.857 302.206 210.41Z"/>
<path fill="#4C2622" d="M261.999 213.011C261.901 213.976 261.14 214.669 260.297 214.555C259.455 214.442 258.851 213.57 258.95 212.604L259.363 208.557C259.462 207.591 260.222 206.899 261.065 207.012C261.907 207.126 262.511 207.998 262.412 208.963L261.999 213.011Z"/>
<path fill="#FFB278" d="M308.822 162.84C308.593 157.588 306.656 156.697 306.642 152.004L289.195 151.586C290.948 157.358 291.873 165.526 292.122 171.568C292.384 177.981 293.445 185.919 292.183 192.101C291.099 197.407 280.47 210.343 274.654 213.678C276.312 216.286 274.429 220.064 275.923 222.797C284.536 219.25 297.59 213.838 304.098 204.512C309.913 196.179 309.419 176.569 308.822 162.84Z"/>
<path fill="#425B28" d="M294.431 116.917C291.798 114.954 288.69 115.411 285.655 119.81C282.332 124.628 283.588 135.323 284.089 139.131C284.839 144.813 289.775 163.915 290.747 170.969C290.747 170.969 311.568 163.442 311.264 160.92C310.425 153.889 303.603 123.76 294.428 116.917H294.431Z"/>
<path fill="#6B8E43" d="M289.199 164.606L290.332 172.809C294.838 172.344 311.872 164.723 311.268 160.922C310.883 158.498 310.582 155.592 309.985 153.309C306.581 155.315 291.996 164.418 289.203 164.609L289.199 164.606Z"/>
</g>
</g>
<defs>
<clipPath id="clip0_875_5632">
<rect transform="translate(21.8867 6.30078)" fill="white" height="345.533" width="365.625"/>
</clipPath>
</defs>
</svg>