<svg width="49" height="49" viewBox="0 0 49 49" fill="none" xmlns="http://www.w3.org/2000/svg">
<circle cx="24.5" cy="24.5" r="24.5" fill="#2E45AF"/>
<path d="M30.976 19.064C30.1867 18.1467 29.248 17.432 28.16 16.92C27.0933 16.408 26.0053 16.152 24.896 16.152C23.5093 16.152 22.24 16.4827 21.088 17.144C19.936 17.8053 19.0293 18.7227 18.368 19.896C17.7067 21.048 17.376 22.3173 17.376 23.704C17.376 25.0907 17.7067 26.3707 18.368 27.544C19.0293 28.696 19.936 29.6133 21.088 30.296C22.24 30.9573 23.5093 31.288 24.896 31.288C25.9627 31.288 27.0293 31.0533 28.096 30.584C29.184 30.1147 30.144 29.464 30.976 28.632L33.504 31.448C32.3307 32.6427 30.9653 33.592 29.408 34.296C27.8507 34.9787 26.272 35.32 24.672 35.32C22.5173 35.32 20.544 34.808 18.752 33.784C16.96 32.76 15.552 31.3733 14.528 29.624C13.504 27.8533 12.992 25.9013 12.992 23.768C12.992 21.6347 13.5147 19.6933 14.56 17.944C15.6053 16.1947 17.024 14.8187 18.816 13.816C20.6293 12.8133 22.6347 12.312 24.832 12.312C26.432 12.312 28 12.632 29.536 13.272C31.072 13.912 32.384 14.7973 33.472 15.928L30.976 19.064Z" fill="white"/>
</svg>
