<svg width="12" height="13" viewBox="0 0 12 13" fill="none" xmlns="http://www.w3.org/2000/svg">
<path d="M7.63597 11.0236C7.52462 11.9737 6.7168 12.7109 5.73679 12.7109C4.75679 12.7109 3.94897 11.9737 3.83762 11.0236H1.23957C0.554964 11.0236 0 10.4699 0 9.7863C0 9.10361 0.55452 8.54895 1.23782 8.54895C1.29908 8.54895 1.34983 8.49817 1.34983 8.43607V5.73663C1.34983 3.81235 2.59829 2.13813 4.38696 1.56135V1.35003C4.38696 0.604776 4.99209 0 5.73679 0C6.48269 0 7.08663 0.603512 7.08663 1.35003V1.56138C8.87526 2.13824 10.1238 3.81276 10.1238 5.73663V8.43607C10.1238 8.4994 10.1733 8.54895 10.2358 8.54895C10.918 8.54895 11.4736 9.10343 11.4736 9.7863C11.4736 10.4691 10.9181 11.0236 10.234 11.0236H7.63597ZM6.95374 11.0236H4.51985C4.62564 11.5996 5.13025 12.036 5.73679 12.036C6.34334 12.036 6.84795 11.5996 6.95374 11.0236ZM4.8085 2.14162C3.18197 2.56007 2.02475 4.03254 2.02475 5.73663V8.43607C2.02475 8.87082 1.67192 9.22387 1.23782 9.22387C0.927305 9.22387 0.674917 9.47632 0.674917 9.7863C0.674917 10.0968 0.92737 10.3487 1.23957 10.3487H10.234C10.5456 10.3487 10.7987 10.0961 10.7987 9.7863C10.7987 9.47648 10.5456 9.22387 10.2358 9.22387C9.80066 9.22387 9.44884 8.87222 9.44884 8.43607V5.73663C9.44884 4.03295 8.29155 2.56012 6.66508 2.14164L6.41171 2.07644V1.35003C6.41171 0.976366 6.11005 0.674917 5.73679 0.674917C5.36475 0.674917 5.06188 0.977611 5.06188 1.35003V2.07644L4.8085 2.14162Z" fill="white"/>
</svg>
