<svg width="38" height="44" viewBox="0 0 38 44" fill="none" xmlns="http://www.w3.org/2000/svg">
<path d="M16.4612 23.3311C16.2664 23.642 16.1532 24.0901 16.1532 24.5539C16.1532 25.4243 16.5318 26.3025 17.3798 26.3025H19.7791C21.2655 26.3025 22.043 27.9113 22.043 29.4993C22.043 30.3231 21.8426 31.0951 21.4789 31.6754C21.1875 32.1417 20.655 32.6961 19.7791 32.6961H19.0981V34.7531C19.0981 35.152 18.8661 35.4785 18.5785 35.4785C18.2927 35.4785 18.0589 35.1546 18.0589 34.7531V32.6961H15.6317C15.3459 32.6961 15.1121 32.3723 15.1121 31.9707C15.1121 31.5718 15.344 31.2453 15.6317 31.2453H19.7772C20.1688 31.2453 20.4768 31.0692 20.6958 30.7194C20.8906 30.4085 21.0038 29.9604 21.0038 29.4966C21.0038 28.6262 20.6252 27.748 19.7772 27.748H17.7045L17.3797 27.7506C15.8934 27.7506 15.1159 26.1418 15.1159 24.5538C15.1159 23.73 15.3163 22.958 15.68 22.3777C15.9713 21.9114 16.5039 21.357 17.3797 21.357H18.0608V19.3026C18.0608 18.9037 18.2927 18.5772 18.5804 18.5772C18.8661 18.5772 19.1 18.9011 19.1 19.3026V21.357H21.5272C21.8129 21.357 22.0468 21.6808 22.0468 22.0824C22.0468 22.4813 21.8148 22.8078 21.5272 22.8078L17.3798 22.8052C16.9882 22.8052 16.6802 22.9814 16.4612 23.3311ZM37.9998 25.9347V39.4054C37.9998 41.8224 35.3165 43.6462 31.7572 43.6462C28.5284 43.6462 26.0215 42.1463 25.5835 40.0634C23.6407 42.3665 21.1764 43.6462 18.5785 43.6462C16.4649 43.6462 14.4924 42.7965 12.8224 41.3302C11.4418 42.7654 9.75318 43.5504 8.0273 43.5504C3.6016 43.5504 0 38.5221 0 32.3438C0 30.0821 0.569673 27.5278 1.60327 25.1494C2.45873 23.1832 3.54611 21.5252 4.71334 20.3802C4.54634 20.0512 4.44613 19.6522 4.44613 19.217C4.44613 18.4269 4.77458 17.7455 5.24962 17.4165L3.67789 12.9866C3.57583 12.6965 3.62222 12.3467 3.79294 12.1291C3.96366 11.9115 4.21788 11.8778 4.41458 12.0488C5.57065 13.0462 5.7933 12.8078 6.23681 12.3364C6.60237 11.9452 7.10524 11.4141 8.02563 11.4141C8.94788 11.4141 9.44891 11.9478 9.81631 12.3389C10.2598 12.8104 10.4825 13.0462 11.6367 12.0514C11.8334 11.8804 12.0876 11.9141 12.2583 12.1317C12.429 12.3493 12.4773 12.699 12.3734 12.9892L11.3045 16.0021C12.2175 14.4451 13.2362 13.124 14.2995 12.1188C14.0175 11.6784 13.8468 11.0981 13.8468 10.4608C13.8468 9.38569 14.3366 8.46604 15.0214 8.11892L12.7687 1.77456C12.6666 1.48441 12.713 1.13468 12.8837 0.917049C13.0544 0.699443 13.3086 0.665759 13.5053 0.836743C15.2088 2.30558 15.5948 1.89374 16.2313 1.21497C16.7397 0.673532 17.3725 0 18.575 0C19.7756 0 20.4084 0.673539 20.9187 1.21497C21.557 1.89368 21.9411 2.303 23.6446 0.836743C23.8413 0.665766 24.0955 0.699443 24.2662 0.917049C24.437 1.13466 24.4852 1.48439 24.3813 1.77456L22.1285 8.11892C22.8133 8.46865 23.3032 9.38575 23.3032 10.4608C23.3032 11.0981 23.1306 11.6783 22.8504 12.1214C23.9657 13.1757 25.0438 14.598 25.9957 16.2637C26.5821 12.5747 28.9406 9.80794 31.7556 9.80794C35.0105 9.80794 37.6585 13.5047 37.6585 18.0488C37.6585 19.9373 37.2002 21.6782 36.4301 23.0693C37.4489 23.8284 37.9998 24.8259 37.9998 25.9347ZM36.9624 35.0741C35.8639 36.1984 33.9823 36.9108 31.7593 36.9108C29.5363 36.9108 27.6546 36.1984 26.5561 35.0741V36.0352C26.5561 36.3539 26.6879 36.6829 26.9291 36.9989C26.931 37.0015 26.9347 37.0041 26.9365 37.0067C26.9532 37.0248 26.9681 37.0455 26.9829 37.0663C27.766 38.0196 29.5567 38.8278 31.7614 38.8278C34.7397 38.8278 36.9646 37.3538 36.9646 36.0352L36.9624 35.0741ZM36.9624 31.7815C35.7841 32.9421 33.7652 33.4835 31.7593 33.4835C30.1987 33.4835 28.7346 33.1597 27.6379 32.5716C27.1925 32.3333 26.8381 32.0665 26.5542 31.7867V32.6726C26.5542 33.9913 28.7791 35.4653 31.7574 35.4653C34.7356 35.4653 36.9605 33.9912 36.9605 32.6726L36.9624 31.7815ZM36.9624 28.3386C35.8639 29.4629 33.9823 30.1753 31.7593 30.1753C29.5363 30.1753 27.6546 29.4629 26.5561 28.3386V29.2997C26.5561 30.8307 28.8423 32.0328 31.7593 32.0328C34.6782 32.0328 36.9624 30.8333 36.9624 29.2997V28.3386ZM35.6987 24.1755C34.654 25.4864 33.2715 26.2869 31.7592 26.2869C30.2468 26.2869 28.8663 25.489 27.8215 24.1781C27.0236 24.6963 26.5559 25.3413 26.5559 25.9371C26.5559 27.2557 28.7809 28.7298 31.7591 28.7298C34.7373 28.7298 36.9623 27.2557 36.9623 25.9371C36.9623 25.3361 36.4948 24.6936 35.6987 24.1755ZM26.8957 18.0488C26.8957 21.7922 29.0779 24.8385 31.7592 24.8385C34.4424 24.8385 36.6246 21.792 36.6246 18.0488C36.6246 14.3028 34.4423 11.2564 31.7592 11.2564C29.0778 11.2564 26.8957 14.3029 26.8957 18.0488ZM14.383 3.052L16.1292 7.96898H16.8213L16.4539 5.40686C16.3982 5.01569 16.5801 4.63225 16.8603 4.55453C17.1405 4.47681 17.4151 4.73069 17.4708 5.12187L17.8791 7.96895H19.2764L19.6846 5.12187C19.7403 4.73069 20.0149 4.47681 20.2951 4.55453C20.5753 4.63225 20.7572 5.01565 20.7015 5.40686L20.3341 7.96898H21.0262L22.7724 3.052C21.6145 3.60121 20.9817 3.10381 20.2914 2.36811C19.8479 1.89662 19.4285 1.44847 18.5768 1.44847C17.725 1.44847 17.3056 1.89405 16.8621 2.36811C16.1737 3.10386 15.541 3.60125 14.383 3.052ZM14.8877 10.4612C14.8877 10.9249 15.1049 11.3187 15.4036 11.456C15.4092 11.4586 15.4147 11.4612 15.4203 11.4637C15.489 11.4922 15.5613 11.5078 15.6356 11.5078H21.5218C21.5961 11.5078 21.6703 11.4922 21.7371 11.4637C21.7426 11.4612 21.7482 11.4586 21.7519 11.456C22.0507 11.3187 22.2678 10.9249 22.2678 10.4612C22.2678 9.88607 21.9319 9.41719 21.52 9.41719H21.3511H21.3492H21.3474H19.7033H19.7014H19.6996H17.4561H17.4542H17.4524H15.6339C15.2238 9.41719 14.8877 9.88609 14.8877 10.4612ZM9.49172 19.785C9.62533 19.4405 9.7645 19.0985 9.91295 18.7591C9.9278 18.7254 9.94264 18.6918 9.95749 18.6607H5.88621C5.6691 18.6607 5.48539 18.9171 5.48539 19.2228C5.48539 19.5285 5.6691 19.785 5.88621 19.785L9.49172 19.785ZM5.24231 14.1349L6.33343 17.21H9.72183L10.813 14.1349C10.0948 14.3448 9.65133 13.9795 9.19111 13.4899C8.87565 13.1531 8.60101 12.863 8.02949 12.863C7.45796 12.863 7.18519 13.1531 6.86786 13.4899C6.4058 13.9821 5.96043 14.3474 5.24231 14.1349ZM11.921 40.4478C9.375 37.6758 7.73648 33.3523 7.73648 28.505C7.73648 26.2175 8.16884 23.702 8.97421 21.2304H5.88642C5.82333 21.2304 5.76024 21.2227 5.699 21.2123C3.11409 23.4091 1.03763 28.339 1.03763 32.344C1.03763 37.7247 4.17368 42.1029 8.0279 42.1029C9.41594 42.1029 10.7741 41.5203 11.921 40.4478ZM25.5172 38.181V25.9351C25.5172 24.8289 26.0683 23.8315 27.0852 23.0699C26.3708 21.7772 25.9255 20.1814 25.8642 18.4483C24.7082 16.0934 23.283 14.1479 21.8226 12.92C21.7243 12.9433 21.6241 12.9562 21.522 12.9562L15.6357 12.9588C15.5318 12.9588 15.4316 12.9459 15.3314 12.9226C11.6981 15.9639 8.77344 22.8857 8.77344 28.5076C8.77344 36.0567 13.1732 42.1992 18.5788 42.1992C21.2064 42.1992 23.684 40.7483 25.5172 38.181ZM36.9629 39.4064V38.4427C35.8644 39.567 33.9828 40.2794 31.7598 40.2794C29.6184 40.2794 27.7961 39.6188 26.6825 38.567C26.6398 38.6344 26.5971 38.6991 26.5544 38.7639V39.409C26.5544 40.7276 28.7794 42.2016 31.7576 42.2016C34.7378 42.199 36.9629 40.7249 36.9629 39.4064ZM31.0287 18.7724H32.4909C33.0105 18.7724 33.0364 19.4253 33.0364 19.5574C33.0364 19.6869 33.0105 20.3424 32.4909 20.3424H29.9635C29.6778 20.3424 29.4439 20.6662 29.4439 21.0678C29.4439 21.4667 29.6759 21.7932 29.9635 21.7932H31.2402V22.7646C31.2402 23.1636 31.4722 23.49 31.7598 23.49C32.0456 23.49 32.2794 23.1662 32.2794 22.7646V21.7932H32.4928C33.532 21.7932 34.0775 20.6714 34.0775 19.5601C34.0775 18.4513 33.5338 17.327 32.4928 17.327H31.0306C30.511 17.327 30.485 16.6715 30.485 16.542C30.485 16.4099 30.511 15.757 31.0306 15.757H33.558C33.8437 15.757 34.0776 15.4332 34.0776 15.0316C34.0776 14.6327 33.8456 14.3062 33.558 14.3062H32.2794L32.2776 13.3348C32.2776 12.9358 32.0456 12.6094 31.758 12.6094C31.4722 12.6094 31.2384 12.9332 31.2384 13.3348V14.3062H31.0268C29.9877 14.3062 29.4421 15.4306 29.4421 16.5393C29.4458 17.6507 29.9895 18.7724 31.0287 18.7724Z" fill="white"/>
</svg>
