<svg width="47" height="49" viewBox="0 0 47 49" fill="none" xmlns="http://www.w3.org/2000/svg">
<path d="M39.3709 22.2612C38.8452 22.2646 38.1342 22.3586 37.9639 21.7088C37.6451 20.5738 37.1928 19.4808 36.6154 18.4532C36.4468 18.1544 36.5002 17.7783 36.7456 17.5382C38.1776 16.3864 38.5815 14.427 37.2329 13.0349L36.2115 12.0073C35.1083 10.9009 33.324 10.9009 32.2225 12.0073C31.8536 12.3851 31.4063 12.9711 30.8272 12.6303C29.8058 12.0476 28.7175 11.5926 27.5876 11.2719C26.94 11.104 27.0368 10.3737 27.0402 9.85651C27.0402 8.29001 25.7801 7.01898 24.2228 7.01562H22.7808C21.2236 7.01898 19.9634 8.28997 19.9634 9.85651C19.9668 10.3871 20.0636 11.0973 19.4143 11.2719L19.416 11.2702C18.2861 11.5909 17.1995 12.0476 16.1781 12.6286C15.6006 12.9778 15.1433 12.3767 14.7794 12.0073H14.7811C13.6779 10.9009 11.8953 10.9009 10.7921 12.0073L9.77069 13.0349C8.42713 14.4285 8.81932 16.3828 10.258 17.5382V17.5365C10.5017 17.7766 10.5568 18.151 10.3899 18.4499C9.81238 19.4791 9.35841 20.5721 9.03962 21.7088C8.87272 22.3602 8.14837 22.2645 7.63261 22.2595V22.2612C6.07541 22.2595 4.81193 23.5288 4.80859 25.0953V26.546C4.83697 28.4768 6.48098 29.5833 8.30689 29.3802V29.3785C8.64737 29.3751 8.9478 29.6018 9.03958 29.9309C9.35836 30.6797 9.46184 32.3907 10.5367 32.0364C11.468 31.5578 10.4132 30.3691 10.3247 29.5665C10.066 28.6615 9.24322 28.037 8.30685 28.0353H7.63257C6.81306 28.037 6.14712 27.3704 6.14378 26.546V25.0954C6.14712 24.2693 6.81306 23.6027 7.63257 23.6044H8.30685C9.24318 23.6027 10.066 22.9781 10.3247 22.0731C10.7587 19.8132 13.1521 18.0771 10.7153 16.0977C10.1361 15.5134 10.1361 14.5682 10.7153 13.9838L11.7367 12.9563C12.3159 12.3737 13.2555 12.3737 13.8364 12.9563C15.7958 15.406 17.5367 13 19.778 12.5634C20.6777 12.3049 21.2985 11.4771 21.2985 10.5352V9.85686C21.2985 9.03078 21.9611 8.36086 22.7807 8.35918H24.2227C25.0422 8.36086 25.7048 9.03078 25.7048 9.85686V10.5352C25.7048 11.4771 26.3257 12.3048 27.2253 12.5651C29.0613 12.8421 30.9773 15.1037 32.6799 13.4483L33.1656 12.958L33.1672 12.9563C33.7481 12.3754 34.6861 12.3754 35.2669 12.9563L36.2883 13.9839C36.8675 14.5682 36.8675 15.5134 36.2883 16.0977L35.801 16.588C34.157 18.2956 36.4018 20.2264 36.6789 22.0751V22.0735C36.9376 22.9801 37.7604 23.603 38.6968 23.6047H39.3711C40.1906 23.603 40.8565 24.2696 40.8598 25.0957V26.5463C40.8565 27.3707 40.1906 28.0373 39.3711 28.0356H38.6968C37.7605 28.0373 36.9376 28.6619 36.6789 29.5669C36.5287 30.1075 36.3434 30.6364 36.1231 31.1518C35.9846 31.491 36.1398 31.8772 36.4719 32.0232C36.8057 32.1693 37.193 32.0215 37.3465 31.6908C37.5919 31.1182 37.7972 30.5306 37.9641 29.9312C38.0558 29.6021 38.3563 29.3754 38.6967 29.3787C40.521 29.5769 42.165 28.4855 42.195 26.5446V25.0939V25.0956C42.1917 23.5291 40.9282 22.2595 39.3709 22.2612Z" fill="white"/>
<path d="M16.0964 22.7301C18.7886 16.1469 28.2105 16.1499 30.9006 22.7301C31.0475 23.0659 31.433 23.2204 31.7685 23.0793C32.104 22.94 32.2659 22.5538 32.1323 22.2147C31.181 19.9144 29.36 18.0877 27.0717 17.1359C24.7834 16.1839 22.2132 16.1839 19.9247 17.1359C17.6348 18.0878 15.8155 19.9146 14.8641 22.2147C14.7289 22.5538 14.8908 22.94 15.2279 23.081C15.5634 23.2221 15.9506 23.0659 16.0958 22.7301L16.0964 22.7301Z" fill="white"/>
<path d="M23.5016 21.7891C20.4923 21.7924 17.6082 22.9963 15.4804 25.1353C13.3524 27.2761 12.1557 30.1789 12.1523 33.2062C12.7749 48.3523 34.2304 48.3489 34.8512 33.2062C34.8479 30.1789 33.6512 27.2759 31.5231 25.1353C29.3951 22.9963 26.5109 21.7925 23.5016 21.7891ZM23.5016 43.2803C20.8462 43.2769 18.3008 42.2141 16.4234 40.3252C14.5458 38.4364 13.4909 35.8757 13.4876 33.2065C14.0367 19.8415 32.9686 19.845 33.516 33.2065C33.5126 35.8761 32.4578 38.4366 30.5801 40.3252C28.7025 42.2141 26.1567 43.2769 23.5016 43.2803Z" fill="white"/>
<path d="M30.613 31.3858C31.0319 33.0194 30.8784 34.7471 30.1791 36.2785C30.0239 36.6159 30.1707 37.0138 30.5062 37.17C32.217 38.1069 32.948 29.9451 31.0887 30.5649H31.087C30.7315 30.6606 30.5196 31.0281 30.613 31.3858Z" fill="white"/>
<path d="M23.4992 25.8198C25.0497 25.8131 26.5602 26.3067 27.8121 27.2285C28.1092 27.4468 28.5281 27.3813 28.7451 27.0824C28.962 26.7819 28.897 26.3621 28.5999 26.1439C27.1211 25.0542 25.3336 24.4699 23.4991 24.4766C21.1975 24.4783 18.9926 25.4001 17.3656 27.0354C15.7383 28.6724 14.8237 30.8921 14.8203 33.2073C14.8186 34.0803 15.1792 37.7406 16.4944 37.1748C16.8298 37.0186 16.9767 36.6207 16.8215 36.2832C14.5516 31.5586 18.2651 25.7042 23.4992 25.8198Z" fill="white"/>
<path d="M29.9481 27.7808L24.3602 33.402C21.3292 32.1881 20.2394 36.9935 23.5024 37.2302V37.2318C24.1867 37.2268 24.8225 36.8708 25.1864 36.2882C25.5519 35.7056 25.5953 34.9769 25.3049 34.3524L30.8928 28.7311C31.1448 28.4675 31.1415 28.0494 30.8844 27.7909C30.6274 27.5323 30.2118 27.5273 29.9481 27.7808ZM23.5023 35.8886C23.1384 35.8802 22.848 35.5813 22.848 35.217C22.848 34.851 23.1384 34.5521 23.5023 34.5454C23.8661 34.5521 24.1565 34.851 24.1565 35.217C24.1565 35.5813 23.8661 35.8802 23.5023 35.8886Z" fill="white"/>
</svg>
