<svg width="103" height="113" viewBox="0 0 103 113" fill="none" xmlns="http://www.w3.org/2000/svg">
<g clip-path="url(#clip0_258_6310)">
<path d="M69.5773 47.2721H67.8461V41.7273C67.8461 37.474 66.1835 33.4748 63.1656 30.4668C60.147 27.4588 56.1343 25.8027 51.8653 25.8027C47.5963 25.8027 43.5836 27.4594 40.565 30.4668C37.5464 33.4748 35.8845 37.4734 35.8845 41.7273V47.2721H34.1532C32.1353 47.2721 30.4985 48.9024 30.4985 50.9139V79.3378C30.4985 81.3487 32.1347 82.9797 34.1532 82.9797H69.5767C71.5946 82.9797 73.2314 81.3493 73.2314 79.3378V50.9139C73.2314 48.9031 71.5952 47.2721 69.5767 47.2721H69.5773ZM39.8549 41.7273C39.8549 38.5304 41.104 35.5251 43.3729 33.2648C45.6411 31.0045 48.6571 29.7592 51.8653 29.7592C55.0735 29.7592 58.0894 31.0039 60.3577 33.2648C62.6259 35.5251 63.8756 38.5304 63.8756 41.7273V47.2721H39.8549V41.7273ZM54.2465 68.1095V70.6759C54.2465 71.9864 53.1797 73.0487 51.8653 73.0487C50.5508 73.0487 49.4841 71.9864 49.4841 70.6759V68.1095C47.5078 67.2084 46.1345 65.22 46.1345 62.9137C46.1345 59.7595 48.7007 57.2024 51.8659 57.2024C55.0312 57.2024 57.5973 59.7589 57.5973 62.9137C57.5973 65.22 56.2241 67.2084 54.2478 68.1095H54.2465Z" fill="#1A4B8A"/>
<path d="M101.372 43.6058C100.324 39.5367 98.7713 35.598 96.7587 31.8989C92.8048 24.6323 87.08 18.3359 80.2039 13.691C78.9469 12.8419 77.2368 13.169 76.3847 14.4216C75.5326 15.6742 75.8609 17.3782 77.1179 18.2273C83.2687 22.3826 88.3885 28.0129 91.9243 34.5113C93.7229 37.8162 95.1093 41.3349 96.046 44.9696C97.011 48.7147 97.5011 52.5942 97.5011 56.5C97.5011 62.7385 96.2758 68.7893 93.8583 74.4835C91.5233 79.9848 88.1797 84.9266 83.9207 89.1707C79.6616 93.4148 74.703 96.7466 69.1817 99.0734C63.4674 101.482 57.3952 102.703 51.1347 102.703V99.7658C51.1347 98.2368 49.3975 97.3502 48.1524 98.2427L40.2347 103.92C39.1904 104.669 39.1904 106.218 40.2347 106.966L48.1524 112.644C49.3982 113.537 51.1347 112.65 51.1347 111.12V108.183C58.135 108.183 64.9279 106.816 71.3237 104.12C77.5003 101.517 83.0468 97.7912 87.8092 93.0455C92.5716 88.2999 96.3108 82.7729 98.9232 76.618C101.629 70.2446 103 63.4757 103 56.5C103 52.1348 102.452 47.7965 101.372 43.6058Z" fill="#FF8912"/>
<path d="M19.08 23.8295C23.3391 19.5854 28.2977 16.2536 33.819 13.9268C39.5332 11.5185 45.6054 10.2968 51.8659 10.2968V13.2344C51.8659 14.7634 53.6031 15.65 54.8482 14.7575L62.7659 9.07981C63.8102 8.33143 63.8102 6.78268 62.7659 6.0343L54.8482 0.35662C53.6025 -0.536564 51.8659 0.350696 51.8659 1.87971V4.81728C44.8657 4.81728 38.0728 6.18437 31.6769 8.87972C25.5003 11.4829 19.9539 15.209 15.1915 19.9547C10.4291 24.7003 6.68982 30.2273 4.07744 36.3822C1.37192 42.7549 0 49.5239 0 56.5002C0 60.8654 0.547577 65.2037 1.62754 69.3944C2.67646 73.4635 4.2287 77.4022 6.24132 81.1013C10.1952 88.3679 15.92 94.6636 22.7961 99.3092C23.2691 99.6284 23.8054 99.7818 24.3365 99.7818C25.2176 99.7818 26.0836 99.3605 26.6146 98.5793C27.4667 97.3267 27.1384 95.6226 25.8814 94.7735C19.7306 90.6183 14.6109 84.9873 11.0751 78.4895C9.27645 75.184 7.89 71.6659 6.95337 68.0313C5.98768 64.2861 5.49823 60.4066 5.49823 56.5009C5.49823 50.2624 6.72351 44.2115 9.14104 38.5174C11.476 33.0161 14.8196 28.0743 19.0787 23.8302L19.08 23.8295Z" fill="#FF8912"/>
</g>
<defs>
<clipPath id="clip0_258_6310">
<rect width="103" height="113" fill="white"/>
</clipPath>
</defs>
</svg>
