<svg xmlns="http://www.w3.org/2000/svg" fill="none" viewBox="12.3291 0 641.592 198" style="max-height: 500px" width="641.592" height="198">
<path fill-opacity="0.4" fill="#B6E6FC" d="M96.0534 86C47.5532 86 21.8094 119.08 15 135.62V183C15 191.284 21.5559 198 29.8401 198H684.514C561.946 198 590.94 157.595 497.366 135.62C403.793 113.646 378.752 135.62 308.242 135.62C237.732 135.62 156.679 86 96.0534 86Z"/>
<path fill="#E1E7FF" d="M76.5 119C39.7 119 20.1667 142.333 15 154V183C15 191.284 21.6296 198 29.9139 198H523C430 198 452 169.5 381 154C310 138.5 291 154 237.5 154C184 154 122.5 119 76.5 119Z"/>
<mask height="198" width="1064" y="0" x="0" maskUnits="userSpaceOnUse" style="mask-type:alpha" id="mask0_1028_5523">
<rect fill="white" rx="20" height="198" width="1064"/>
</mask>
<g mask="url(#mask0_1028_5523)">
<g clip-path="url(#clip0_1028_5523)">
<path fill="#4B3F66" d="M198.258 171.727H249.822C251.399 171.727 252.689 173.51 252.689 175.691C252.689 177.872 251.4 179.655 249.822 179.655H198.258C196.682 179.655 195.391 177.872 195.391 175.691C195.391 173.51 196.68 171.727 198.258 171.727Z" clip-rule="evenodd" fill-rule="evenodd"/>
<path fill="#C1BCBE" d="M255.245 182.582C254.997 181.521 254.462 180.573 253.66 179.797C250.954 177.177 246.057 177.232 245.352 177.255H201.016V180.658H245.44C246.577 180.621 249.845 180.832 251.302 182.247C251.601 182.537 251.8 182.861 251.907 183.237C251.914 183.266 251.922 183.295 251.929 183.326C251.931 183.334 251.933 183.345 251.936 183.353C251.963 183.482 251.984 183.619 251.997 183.756C252.002 183.835 252.006 183.913 252.006 183.995H252.018C252.038 184.313 252.038 184.626 252.038 184.879V285.404H255.403V184.879C255.403 184.204 255.445 183.146 255.245 182.581V182.582Z"/>
<path fill="#312845" d="M129.906 135.426H172.288V193.901H129.906V135.426Z" clip-rule="evenodd" fill-rule="evenodd"/>
<path fill="#544B69" d="M206.057 197.27C225.432 197.27 241.138 221.208 241.138 250.739C241.138 280.27 225.432 304.209 206.057 304.209C186.682 304.209 170.977 280.27 170.977 250.739C170.977 221.208 186.682 197.27 206.057 197.27ZM206.057 204.261C222.899 204.261 236.551 225.069 236.551 250.737C236.551 276.406 222.899 297.214 206.057 297.214C189.215 297.214 175.563 276.406 175.563 250.737C175.563 225.069 189.215 204.261 206.057 204.261Z" clip-rule="evenodd" fill-rule="evenodd"/>
<path fill="#E0D7DA" d="M123.041 125.794C123.073 125.786 134.35 122.819 133.759 136.043L130.406 135.921C130.805 127.001 123.927 128.818 123.907 128.823L123.039 125.794H123.041Z"/>
<path fill="#3A3051" d="M110.43 124.844H126.475C128.318 124.844 129.826 126.355 129.826 128.201C129.826 130.047 128.318 131.557 126.475 131.557H110.43C108.587 131.557 107.078 130.047 107.078 128.201C107.078 126.355 108.587 124.844 110.43 124.844Z" clip-rule="evenodd" fill-rule="evenodd"/>
<path fill="#E8E8E3" d="M196.353 65.7507C196.606 65.5669 196.353 60.9936 193.285 58.12C190.218 55.2463 179.037 55.5424 172.209 59.7057C165.382 63.8689 163.302 71.697 164.886 80.221C166.469 88.745 174.476 94.2694 174.476 94.2694C174.476 94.2694 196.424 65.3219 196.351 65.7507H196.353Z" clip-rule="evenodd" fill-rule="evenodd"/>
<path fill="#3A3051" d="M255.501 205.493V225.612H198.703V191.717H200.495C201.285 191.096 202.279 190.727 203.354 190.727H250.85C253.408 190.727 255.501 192.823 255.501 195.385V205.495V205.493Z" clip-rule="evenodd" fill-rule="evenodd"/>
<path fill="#4D4F78" d="M215.356 191.467C215.356 191.467 249.543 194.786 256.47 199.595C263.397 204.401 265.624 216.394 265.128 229.476C264.634 242.558 266.316 278.585 266.316 278.585L245.784 280.072L239.006 222.044H226.044L206.056 195.382L206 191.086L215.356 191.469V191.467Z" clip-rule="evenodd" fill-rule="evenodd"/>
<path fill="#98B9E7" d="M196.498 105.122C196.498 105.122 208.767 112.357 212.725 117.808C216.683 123.259 229.744 150.117 229.744 150.117L213.615 161.714L216.204 191.716V195.165L156.225 193.428L158.007 158.144C153.481 153.755 143.07 152.543 138.391 152.074C138.391 152.074 142.77 126.726 151.081 114.041C159.393 101.355 187.891 94.2197 196.5 105.121L196.498 105.122Z" clip-rule="evenodd" fill-rule="evenodd"/>
<path fill="#5F6086" d="M177.805 193.896C177.806 193.568 208.182 192.707 218.87 195.779C229.556 198.852 231.832 208.169 232.822 215.007C233.811 221.845 236.187 279.527 236.187 279.527L212.836 282.105L204.92 222.243H183.944L177.808 193.898L177.805 193.896Z" clip-rule="evenodd" fill-rule="evenodd"/>
<path fill="#4EB1DE" d="M340.454 158.988C340.454 158.988 336.199 217.661 336.199 226.382C336.199 235.103 336.595 290.803 336.595 290.803L319.378 290.705L314.53 238.772L312.748 290.407L297.015 290.803L293.453 229.455L287.219 159.186C287.219 159.186 316.109 163.296 340.454 158.988Z" clip-rule="evenodd" fill-rule="evenodd"/>
<path fill="#3C759A" d="M314.532 238.77L314.467 240.652C314.467 240.642 300.38 162.635 300.284 164.14C300.187 165.648 303.19 162.805 303.19 162.805C303.19 162.805 306.896 163 306.813 164.736C306.73 166.471 314.532 238.77 314.532 238.77Z" clip-rule="evenodd" fill-rule="evenodd"/>
<path fill="#3C759A" d="M340.454 158.988C340.454 158.988 340.31 160.977 340.076 164.269C317.636 169.794 294.343 165.95 287.703 164.635L287.219 159.186C287.219 159.186 316.109 163.296 340.454 158.988Z" clip-rule="evenodd" fill-rule="evenodd"/>
<path fill="#373648" d="M282.556 36.8972C282.556 36.8972 277.411 29.3651 277.509 20.9398C277.608 12.5163 284.041 8.25429 291.165 5.47932C298.289 2.70436 306.106 5.28026 310.263 8.84978C314.419 12.4176 318.574 19.4545 317.19 26.2924C315.805 33.1303 308.581 40.7627 308.581 40.7627L282.558 36.8972H282.556Z" clip-rule="evenodd" fill-rule="evenodd"/>
<path fill="#FD997B" d="M277.377 95.9062C277.377 95.9062 275.595 115.926 273.518 117.81C271.441 119.693 249.375 149.425 247.792 150.516C246.209 151.606 243.19 153.143 242.003 153.192C240.816 153.241 237.055 154.133 235.225 154.679C233.394 155.223 230.377 156.464 231.366 157.553C232.356 158.643 236.756 157.403 236.756 157.403L250.18 158.793C250.18 158.793 278.218 134.708 281.979 129.257C285.74 123.806 289.005 114.092 289.005 114.092L293.853 100.316L277.377 95.9062Z" clip-rule="evenodd" fill-rule="evenodd"/>
<path fill="#D67051" d="M277.376 95.9062C277.376 95.9062 277.213 97.7369 276.93 100.342L292.394 104.459L293.852 100.318L277.376 95.908V95.9062Z" clip-rule="evenodd" fill-rule="evenodd"/>
<path fill="#4EB1DE" d="M315.481 54.416C315.481 54.416 326.563 58.9757 332.401 66.21C338.239 73.4443 335.27 91.7802 334.874 93.4646C334.479 95.149 332.797 101.888 332.797 101.888L326.167 101.145C326.167 101.145 330.324 120.074 333.094 127.21C335.865 134.346 339.427 147.132 340.713 153.672L341.998 160.213C341.998 160.213 336.062 162.988 321.418 163.286C306.774 163.584 285.004 161.403 285.004 161.403C285.004 161.403 288.863 124.534 288.369 119.678C287.874 114.822 283.816 99.1625 283.816 99.1625L275.406 96.6853C275.406 96.6853 279.661 73.4937 283.718 65.5652C287.774 57.6367 293.811 56.051 296.186 55.0591C298.561 54.0672 315.481 54.4143 315.481 54.4143V54.416Z" clip-rule="evenodd" fill-rule="evenodd"/>
<path fill="#FD997B" d="M306.602 36.1055C306.602 36.1055 308.829 44.0833 310.807 47.1067L312.786 50.13C312.786 50.13 308.547 59.4809 304.886 64.0406C301.225 68.6003 297.995 72.8266 297.995 72.8266L297.5 52.1121L296.016 47.2564C296.016 47.2564 299.717 47.2155 306.603 36.1072L306.602 36.1055Z" clip-rule="evenodd" fill-rule="evenodd"/>
<path fill="#D67051" d="M306.603 36.1055C306.603 36.1055 306.933 37.2896 307.453 38.9162C305.869 47.3091 297.5 52.1121 297.5 52.1121L296.016 47.2564C296.016 47.2564 299.717 47.2155 306.603 36.1072V36.1055Z" clip-rule="evenodd" fill-rule="evenodd"/>
<path fill="#B56454" d="M194.917 96.8453C194.939 97.8066 191.652 118.649 191.652 118.649L172.852 108.935C172.852 108.935 174.904 89.1567 175.07 89.1516C175.236 89.1465 182.449 88.2227 182.449 88.2227L194.917 96.8453Z" clip-rule="evenodd" fill-rule="evenodd"/>
<path fill="#7A3B2E" d="M194.912 96.8436C194.921 97.2451 194.353 101.116 193.688 105.488C180.633 102.885 175.889 93.007 175.031 89.2724C177.206 88.9645 182.444 88.2227 182.444 88.2227L194.912 96.8453V96.8436Z" clip-rule="evenodd" fill-rule="evenodd"/>
<path fill="#ACC9F2" d="M194.465 100.295C194.465 100.295 195.557 99.7186 197.634 104.476C199.712 109.233 201.295 119.441 201.295 119.441C201.295 119.441 196.595 111.958 195.705 112.355C194.815 112.751 191.648 118.648 191.648 118.648C191.648 118.648 194.431 100.527 194.465 100.295Z" clip-rule="evenodd" fill-rule="evenodd"/>
<path fill="#373648" d="M306.797 8.55287C306.797 8.55287 307.787 2.90426 314.417 3.00123C321.047 3.09992 323.719 10.2355 322.431 14.5979C321.144 18.9603 315.604 19.9505 315.604 19.9505C315.604 19.9505 314.709 14.2457 306.799 8.55287H306.797Z" clip-rule="evenodd" fill-rule="evenodd"/>
<path fill="#FD997B" d="M282.161 18.957C282.161 18.957 280.035 24.2092 280.232 32.2874C280.43 40.3639 286.564 47.4009 288.84 49.2843C291.117 51.1677 296.805 49.4834 300.269 46.8071C303.732 44.1308 306.427 36.8914 306.717 36.8914C307.007 36.8914 308.779 36.5001 309.917 33.5754C311.055 30.6524 309.669 25.5482 307.048 26.9842C304.426 28.4219 304.426 31.3448 304.426 31.3448C304.426 31.3448 286.318 22.7222 282.161 18.957Z" clip-rule="evenodd" fill-rule="evenodd"/>
<path fill="#BA6232" d="M307.915 32.1572C307.915 32.1572 307.361 29.8722 306.549 31.2095C306.488 32.0585 306.561 32.9993 306.753 33.8092L306.208 33.9385C305.949 32.8513 305.895 31.5379 306.072 30.4762C306.238 29.4809 306.619 28.6863 307.242 28.4362C308.638 27.8765 309.44 30.4098 309.442 30.4166L308.912 30.5919C308.912 30.5919 308.282 28.6234 307.451 28.9551C307.106 29.093 306.862 29.5455 306.71 30.1546C307.823 29.3924 308.458 32.0142 308.46 32.0228L307.916 32.1572H307.915Z"/>
<path fill="#F0F0F0" d="M311.797 48.6172C311.797 48.6172 313.01 48.7652 314.94 50.3509C316.869 51.9366 318.799 56.1492 318.799 56.1492L316.028 64.4248C316.028 64.4248 308.211 64.7719 308.41 65.3163C308.609 65.8608 309.993 68.389 309.993 68.389L297.55 80.0095C297.55 80.0095 292.108 70.8424 291.862 70.0989C291.615 69.3554 293.593 66.7285 293.593 66.7285C293.593 66.7285 290.178 63.9042 289.832 63.5571C289.485 63.21 290.525 60.9795 292.354 58.0072C294.185 55.0331 297.515 52.7312 297.515 52.7312L297.994 72.8246C297.994 72.8246 307.573 59.4874 309.419 56.2326C311.267 52.9778 312.786 50.1297 312.786 50.1297L311.797 48.6189V48.6172Z" clip-rule="evenodd" fill-rule="evenodd"/>
<path fill="#3C759A" d="M327.608 107.434C328.22 110.018 328.976 113.118 329.774 116.179C328.872 119.052 327.364 123.277 325.463 126.431C322.347 131.598 301.136 151.728 285.281 158.702C285.509 156.471 285.854 153.043 286.232 149.116C295.441 139.748 320.085 114.716 327.608 107.434Z" clip-rule="evenodd" fill-rule="evenodd"/>
<path fill="#F0F0F0" d="M283.816 99.1642L275.406 96.6869C275.406 96.6869 275.736 94.8903 276.298 92.1289L282.727 93.5155L283.816 99.1642Z" clip-rule="evenodd" fill-rule="evenodd"/>
<path fill="#3C759A" d="M328.814 64.4507C328.795 64.4558 322.529 66.0007 320.203 72.8896C317.839 79.8959 316.164 93.7061 316.159 93.7469L315.602 93.6789C315.607 93.638 317.287 79.7785 319.672 72.7126C322.096 65.5294 328.656 63.9114 328.674 63.9062L328.812 64.4507H328.814Z"/>
<path fill="#3C759A" d="M286.686 67.6462C286.686 67.6462 281.937 87.071 282.134 89.846C282.333 92.6209 282.728 93.5125 282.728 93.5125L279.859 92.8183C279.859 92.8183 280.454 80.7265 286.686 67.6445V67.6462Z" clip-rule="evenodd" fill-rule="evenodd"/>
<path fill="#F0F0F0" d="M314.939 99.3119C320.66 100.263 326.66 101.337 332.797 101.888L334.112 96.5931L315.877 93.7109L314.938 99.3119H314.939Z" clip-rule="evenodd" fill-rule="evenodd"/>
<path fill="#2E83C6" d="M309.754 45.1195C309.942 45.0583 313.307 43.5355 313.997 52.051C314.607 59.5745 309.312 75.1201 309.297 75.1644L307.719 74.5502C307.734 74.5059 312.898 59.3397 312.32 52.2058C311.823 46.0638 310.781 46.6933 310.567 46.7171C310.333 46.37 310.046 45.8069 309.752 45.1195H309.754Z"/>
<path fill="#DBD7D7" d="M301.081 83.197C301.075 83.2242 298.545 92.7724 299.797 97.7864C300.954 102.424 307.594 101.142 307.613 101.138L307.815 102.241C307.793 102.244 300.125 103.729 298.71 98.0603C297.389 92.7673 299.991 82.9452 299.999 82.918L301.081 83.1987V83.197Z"/>
<path fill="#DBD7D7" d="M305.873 101.302C306.885 101.282 307.61 101.141 307.617 101.141L307.67 101.425C307.186 101.831 306.698 102.153 306.245 102.408C305.834 102.427 305.367 102.429 304.867 102.398L305.873 101.304V101.302Z"/>
<path fill="#C6B3B9" d="M305.545 101.302C306.722 101.309 307.605 101.138 307.612 101.137L307.665 101.421C307.181 101.827 306.693 102.149 306.239 102.404C305.628 102.431 304.887 102.423 304.109 102.323C304.249 101.4 305.288 101.358 305.545 101.302Z"/>
<path fill="#2E83C6" d="M308.554 100.65C309.416 100.514 310.177 100.813 310.255 101.317C310.333 101.821 309.701 102.338 308.84 102.474C307.978 102.61 307.217 102.311 307.139 101.807C307.061 101.303 307.693 100.786 308.554 100.65Z" clip-rule="evenodd" fill-rule="evenodd"/>
<path fill="#F0F0F0" d="M315.719 137.814L331.638 137.391L331.751 139.64L315.829 140.065L315.719 137.814Z" clip-rule="evenodd" fill-rule="evenodd"/>
<path fill="#B56454" d="M192.169 61.4621C192.169 61.4621 195.138 62.3536 198.7 68.9448C202.262 75.536 204.093 83.9102 204.513 88.1977C204.934 92.4835 203.178 94.9862 200.506 96.6723C197.834 98.3567 189.82 98.11 186.108 96.3746C182.398 94.6409 179.181 89.3376 179.181 89.3376C179.181 89.3376 175.777 90.2785 173.601 88.4954C171.423 86.7107 171.216 84.0361 171.958 82.8962C172.701 81.7562 174.382 80.9634 176.213 82.6971C178.045 84.4308 178.44 85.3734 178.44 85.3734C178.44 85.3734 181.309 79.9715 180.766 74.4709C180.222 68.9703 174.731 65.6509 174.731 65.6509C174.731 65.6509 181.904 64.3629 185.269 62.6769C188.634 60.9925 189.821 60.3477 189.821 60.3477L192.171 61.4621H192.169Z" clip-rule="evenodd" fill-rule="evenodd"/>
<path fill="#E8E8E3" d="M179.131 81.0134C179.131 81.0134 183.88 86.7624 187.442 88.0997C191.005 89.437 191.796 87.8513 191.796 87.8513C191.796 87.8513 197.262 80.731 203.386 81.7876C205.254 83.1929 206.788 96.0758 200.306 98.1583C193.824 100.239 187.196 98.8525 182.742 95.5807C178.29 92.3106 178.141 81.9032 178.141 81.9032L179.129 81.0117L179.131 81.0134Z" clip-rule="evenodd" fill-rule="evenodd"/>
<path fill="#7A3B2E" d="M203.006 85.1322C203.001 85.1458 201.185 89.8808 194.648 87.7881L194.986 86.7213C200.522 88.4941 201.963 84.7307 201.966 84.7188L203.004 85.1322H203.006Z"/>
<path fill="#7A3B2E" d="M174.209 86.6081C174.209 86.6081 173.579 84.2126 175.215 84.2721C174.979 84.102 174.733 83.9897 174.481 83.9676C173.11 83.8468 173.153 85.5618 173.153 85.5669L172.594 85.5754C172.594 85.5754 172.536 83.2326 174.53 83.4078C176.385 83.5711 177.853 87.2376 177.856 87.2478L177.34 87.4605C177.34 87.4605 176.774 86.0518 175.969 85.0241C174.192 84.3351 174.751 86.4601 174.753 86.4652L174.211 86.6064L174.209 86.6081Z"/>
<path fill="#5676A3" d="M155.351 112.895C155.37 112.903 161.58 115.612 164.495 121.754L163.989 121.994C161.164 116.044 155.142 113.417 155.125 113.408L155.351 112.895Z"/>
<path fill="#5676A3" d="M164.839 124.547C167.261 138.59 165.172 146.022 159.891 158.937L163.651 160.126C163.651 160.126 170.974 142.187 164.839 124.547Z" clip-rule="evenodd" fill-rule="evenodd"/>
<path fill="#B56454" d="M213.804 163.868C213.804 163.868 218.813 170.608 221.287 172.194C223.76 173.78 259.306 167.709 259.306 167.709C259.306 167.709 265.012 169.14 270.661 166.842C276.311 164.543 277.193 154.849 277.193 154.849C277.193 154.849 279.63 154.575 279.171 153.659C278.713 152.744 277.661 153.659 277.193 152.965C276.724 152.273 272.294 152.222 270.71 152.123C269.127 152.024 263.338 156.038 261.755 156.929C260.172 157.821 256.116 159.507 253.938 159.209C251.76 158.911 230.191 156.732 230.191 156.732L226.911 152.154L213.617 161.71L213.804 163.866V163.868Z" clip-rule="evenodd" fill-rule="evenodd"/>
<path fill="#7A422F" d="M213.804 163.869C213.804 163.869 214.219 164.425 214.866 165.257L228.805 154.799L226.911 152.156L213.617 161.713L213.804 163.869Z" clip-rule="evenodd" fill-rule="evenodd"/>
<path fill="#5676A3" d="M192.02 119.043L196.621 178.28L196.063 178.321L191.461 119.084L192.02 119.043Z"/>
<path fill="#5676A3" d="M210.723 118.691C212.664 125.097 213.558 147.521 213.918 156.568C214.008 158.849 214.03 160.212 214.047 160.236L213.592 160.563C213.513 160.452 213.454 158.977 213.359 156.59C213 147.564 212.109 125.191 210.188 118.855L210.723 118.691Z"/>
<path fill="#2E83C6" d="M297.545 53.9663C297.383 54.1535 297.214 54.3661 297.035 54.6026C295.318 56.8825 292.981 61.3316 290.968 68.9215C287.431 82.2672 287.547 86.4339 287.547 86.4458L286.094 86.4679C286.094 86.4543 285.974 82.0835 289.561 68.5506C291.632 60.7395 294.073 56.1152 295.873 53.7247C296.475 52.9268 297.018 52.3602 297.465 51.9961L297.501 52.1101L297.545 53.968V53.9663Z"/>
<path fill="#7A3B2E" d="M227.102 159.583L229.476 157.145L229.877 157.534L227.502 159.972L227.102 159.583Z"/>
<path fill="#5676A3" d="M183.57 115.002L191.647 118.65C189.536 114.645 187.053 113.481 183.57 115.002Z" clip-rule="evenodd" fill-rule="evenodd"/>
<path fill="#ACC9F2" d="M169.929 105.071C169.929 105.071 169.781 101.651 170.868 99.3729C171.957 97.093 174.335 95.0156 174.335 95.0156C174.335 95.0156 175.222 99.6196 177.053 101.404C178.884 103.189 187.705 111.494 189.04 113.724C190.375 115.955 191.648 118.65 191.648 118.65C191.648 118.65 187.116 114.507 185.631 114.903C184.146 115.3 179.278 120.433 179.278 120.433C179.278 120.433 169.779 108.44 169.927 105.071H169.929Z" clip-rule="evenodd" fill-rule="evenodd"/>
<path fill="#FD997B" d="M315.483 99.5586L331.719 101.767C331.719 101.767 325.774 118.786 322.806 122.553C319.837 126.32 305.095 141.285 299.355 146.042C293.615 150.799 284.711 155.061 284.216 155.655C283.722 156.249 280.259 161.503 276.795 164.179C273.331 166.855 269.769 168.936 265.119 169.135C260.468 169.334 258.587 167.401 259.032 167.005C259.477 166.609 260.417 166.757 263.138 166.757C265.859 166.757 266.849 166.013 268.185 164.526C269.52 163.039 271.599 159.373 271.599 159.373C271.599 159.373 269.076 160.017 267.592 160.86C266.107 161.702 265.119 162.148 263.238 162.148C261.358 162.148 263.535 159.373 266.306 157.935C269.076 156.497 271.154 155.655 272.936 153.921C274.718 152.188 279.763 150.551 279.763 150.551C279.763 150.551 301.928 126.566 305.292 123.545C308.657 120.521 310.289 118.589 310.289 118.589L315.483 99.5586Z" clip-rule="evenodd" fill-rule="evenodd"/>
<path fill="#D67051" d="M315.515 99.408L331.715 101.766C331.715 101.766 331.314 102.915 330.668 104.677L314.805 102.028L315.515 99.4062V99.408Z" clip-rule="evenodd" fill-rule="evenodd"/>
<path fill="#DBD7D7" d="M286.659 85.0977C288.995 85.0977 290.889 86.9947 290.889 89.3341C290.889 91.6735 288.995 93.5706 286.659 93.5706C284.324 93.5706 282.43 91.6735 282.43 89.3341C282.43 86.9947 284.324 85.0977 286.659 85.0977Z" clip-rule="evenodd" fill-rule="evenodd"/>
<path fill="#FDFFFF" d="M286.665 87.0156C287.943 87.0156 288.979 88.0535 288.979 89.3329C288.979 90.6124 287.943 91.6502 286.665 91.6502C285.388 91.6502 284.352 90.6124 284.352 89.3329C284.352 88.0535 285.388 87.0156 286.665 87.0156Z" clip-rule="evenodd" fill-rule="evenodd"/>
<path fill="#C7C7BD" d="M174.687 60.9015C174.702 60.9015 180.177 61.4273 185.621 58.2031L185.907 58.6863C180.308 62.0023 174.653 61.4613 174.636 61.4596L174.687 60.9015ZM174.013 67.5812C174.023 67.5982 177.549 73.6092 176.241 79.9094L175.694 79.7955C176.958 73.7079 173.539 67.8789 173.53 67.8619L174.014 67.5812H174.013ZM169.27 69.2758C169.262 69.2928 166.121 75.4093 168.806 82.3697L168.285 82.5721C165.509 75.3786 168.762 69.0427 168.771 69.024L169.27 69.2758ZM168.482 64.4932C168.482 64.4932 170.294 65.3336 173.342 65.1822L173.367 65.742C170.186 65.8985 168.259 65.007 168.253 65.0036L168.48 64.4915L168.482 64.4932Z"/>
<path fill="#62C1ED" d="M309.066 7.58984C309.085 7.59835 315.343 10.2474 316.753 17.9819L316.202 18.0823C314.845 10.6438 308.861 8.11047 308.844 8.10366L309.065 7.58984H309.066Z"/>
<path fill="#FDFFFF" d="M332.904 167.343C332.904 167.452 332.904 167.559 332.897 167.665C332.792 169.645 332.505 175.865 332.377 179.266C331.734 196.459 330.974 227.982 331.81 234.181C332.999 242.994 333.947 287.128 333.949 287.255L333.39 287.266C333.386 287.138 332.44 243.041 331.255 234.254C330.414 228.023 331.173 196.457 331.819 179.246C331.946 175.825 332.233 169.601 332.338 167.634C332.343 167.523 332.35 167.416 332.357 167.312L332.904 167.341V167.343Z"/>
<path fill="#D67051" d="M274.994 117.535L278.615 118.724L278.442 119.257L274.82 118.068L274.994 117.535Z"/>
<path fill="#D67051" d="M311.192 118.834C311.202 118.835 314.691 119.724 315.534 119.965L315.381 120.504C314.561 120.268 311.065 119.38 311.055 119.376L311.192 118.832V118.834Z"/>
<path fill="#DBD7D7" d="M312.424 87.3709C312.419 87.3999 310.615 97.29 308.088 100.131C306.889 101.479 305.688 102.241 304.527 102.575C303.148 102.971 301.849 102.758 300.695 102.197L301.186 101.188C302.105 101.637 303.136 101.807 304.222 101.496C305.185 101.219 306.206 100.562 307.252 99.3879C309.572 96.7779 311.32 87.1991 311.325 87.1719L312.426 87.3743L312.424 87.3709Z"/>
<path fill="#2E83C6" d="M299.469 83.6715C299.476 83.6511 301.674 76.6992 304.123 75.2479C304.22 75.1918 304.337 75.1288 304.471 75.0608C305.688 74.4517 307.211 74.2288 308.652 74.5351C310.119 74.8481 311.505 75.7005 312.412 77.2369C312.477 77.3458 312.547 77.4768 312.623 77.6282C314.295 80.9748 312.545 88.2363 312.54 88.2568L310.909 87.8688C310.914 87.8501 312.519 81.1773 311.123 78.3785C311.082 78.2968 311.03 78.2016 310.965 78.0927C310.323 77.0055 309.343 76.4015 308.303 76.1803C307.237 75.9523 306.112 76.1139 305.222 76.5614C305.156 76.5954 305.074 76.6397 304.979 76.6958C303.075 77.8221 301.052 84.1751 301.047 84.1938L299.47 83.6698L299.469 83.6715Z"/>
<path fill="#2E83C6" d="M300.403 100.398C301.21 100.726 301.709 101.374 301.517 101.847C301.325 102.32 300.517 102.436 299.71 102.108C298.903 101.779 298.404 101.131 298.596 100.658C298.788 100.185 299.596 100.069 300.403 100.398Z" clip-rule="evenodd" fill-rule="evenodd"/>
<path fill="#C6B3B9" d="M301.716 101.4C301.745 101.405 301.777 101.415 301.823 101.427C302.156 101.522 303.272 101.842 304.422 101.316L304.561 101.623C303.295 102.199 302.091 101.854 301.731 101.752C301.69 101.74 301.661 101.732 301.656 101.732L301.716 101.401V101.4Z"/>
<path fill="#3A3051" d="M185.582 207.577V227.696H133.888L133.859 192.827C134.056 192.8 134.34 192.81 134.544 192.81H181.031C183.535 192.81 185.583 194.907 185.583 197.469V207.579L185.582 207.577Z" clip-rule="evenodd" fill-rule="evenodd"/>
<path fill="#C1BCBE" d="M129.906 135.426H133.942V249.14H129.906V135.426Z" clip-rule="evenodd" fill-rule="evenodd"/>
<path fill="#261C3D" d="M131.59 197.271C152.903 197.271 170.18 221.21 170.18 250.741C170.18 280.272 152.903 304.21 131.59 304.21C110.277 304.21 93 280.27 93 250.739C93 221.208 110.277 197.27 131.59 197.27V197.271ZM131.59 204.262C150.115 204.262 165.135 225.07 165.135 250.739C165.135 276.408 150.117 297.216 131.59 297.216C113.063 297.216 98.0467 276.408 98.0467 250.739C98.0467 225.07 113.064 204.262 131.592 204.262H131.59Z" clip-rule="evenodd" fill-rule="evenodd"/>
<path fill="#3C759A" d="M288.329 105.398C288.371 105.419 302.81 112.429 309.936 111.986L309.968 112.546C302.696 112.997 288.128 105.922 288.086 105.904L288.329 105.398Z"/>
<path fill="#4B3F66" d="M181.834 173.297H133.945V181.084H181.834C183.063 181.084 184.069 179.332 184.069 177.19C184.069 175.048 183.063 173.297 181.834 173.297Z" clip-rule="evenodd" fill-rule="evenodd"/>
<path fill="#C1BCBE" d="M185.425 183.653C185.177 182.591 184.642 181.643 183.84 180.868C181.134 178.247 176.237 178.302 175.532 178.326H131.195V181.728H175.62C176.757 181.691 180.025 181.902 181.482 183.318C181.781 183.607 181.98 183.932 182.087 184.308C182.094 184.337 182.102 184.366 182.109 184.396C182.111 184.405 182.112 184.415 182.116 184.425C182.143 184.554 182.163 184.691 182.177 184.828C182.182 184.907 182.185 184.985 182.185 185.067H182.197C182.218 185.385 182.218 185.698 182.218 185.951V286.476H185.583V185.951C185.583 185.276 185.625 184.218 185.425 183.653Z"/>
<path fill="#B56454" d="M140.123 152.258C140.123 152.258 137.376 159.78 138.563 165.974C139.751 172.169 144.352 172.615 147.568 173.061C150.783 173.506 178.886 173.309 180.172 173.706C181.458 174.102 185.862 180.395 188.137 182.774C190.413 185.152 192.49 187.531 193.085 190.059C193.678 192.586 193.333 195.213 194.619 196.303C195.905 197.394 196.994 194.469 196.994 194.469C196.994 194.469 197.588 195.858 198.775 196.006C199.963 196.154 200.656 192.834 200.754 189.762C200.853 186.689 201.843 182.774 199.764 178.265C197.687 173.757 188.385 166.422 186.752 165.826C185.12 165.231 157.804 157.954 157.802 157.951C157.801 157.947 154.164 153.571 140.123 152.258Z" clip-rule="evenodd" fill-rule="evenodd"/>
<path fill="#7A422F" d="M140.122 152.258C140.122 152.258 139.638 153.585 139.164 155.584C142.56 155.48 149.959 155.599 157.802 157.951C157.8 157.947 154.163 153.571 140.122 152.258ZM159.403 158.378C158.393 158.107 157.802 157.949 157.802 157.949C158.411 158.133 158.941 158.272 159.403 158.378Z" clip-rule="evenodd" fill-rule="evenodd"/>
<path fill="#7A422F" d="M152.424 160.884C152.424 160.884 154.72 158.987 157.851 158.449L157.948 159C154.961 159.514 152.78 161.316 152.773 161.319L152.422 160.884H152.424Z"/>
<path fill="#7A3B2E" d="M199.157 183.984C199.157 184.01 199.308 192.799 199.304 193.257H198.746C198.749 192.803 198.598 184.018 198.598 183.993L199.157 183.984ZM195.589 184.93C195.593 184.952 197.032 192.893 197.028 193.306H196.469C196.471 192.937 195.042 185.051 195.039 185.029L195.589 184.93Z"/>
</g>
</g>
<defs>
<clipPath id="clip0_1028_5523">
<rect transform="translate(93 3)" fill="white" height="302" width="249"/>
</clipPath>
</defs>
</svg>