<svg width="39" height="30" viewBox="0 0 39 30" fill="none" xmlns="http://www.w3.org/2000/svg">
<path d="M19.5002 0.00143288C17.3003 0.00143288 15.5011 1.6928 15.5011 3.77229C15.5011 5.01621 16.144 6.12107 17.1312 6.80892C14.744 7.69803 13.053 9.89189 13.053 12.4608V13.8596V13.8581C13.053 14.0116 13.117 14.1593 13.2312 14.2694C13.3455 14.378 13.4993 14.4388 13.6624 14.4403H25.344H25.3425C25.6791 14.4388 25.9518 14.1782 25.9503 13.8582V12.4593C25.9503 9.89042 24.2578 7.69645 21.869 6.80749C22.8577 6.11964 23.5036 5.01477 23.5036 3.77086C23.5036 1.6914 21.7014 0 19.5014 0L19.5002 0.00143288ZM19.5002 1.1599C21.048 1.1599 22.2835 2.3256 22.2835 3.77225C22.2835 5.21887 21.0479 6.38605 19.5002 6.38605C17.9524 6.38605 16.7153 5.22036 16.7153 3.77225C16.7153 2.32563 17.9524 1.1599 19.5002 1.1599ZM25.1735 3.90982C25.0942 3.90693 25.0135 3.91996 24.9389 3.94747C24.7865 4.00105 24.6631 4.11111 24.5976 4.25157C24.459 4.54264 24.5961 4.88437 24.9023 5.01616C28.8023 6.69592 31.5826 10.0815 32.3548 14.0811C32.3837 14.2332 32.4751 14.3678 32.6092 14.4547C32.7432 14.5416 32.9078 14.5749 33.0677 14.5474C33.2262 14.5199 33.3679 14.433 33.4593 14.3056C33.5522 14.1796 33.5872 14.0232 33.5568 13.8711C32.7128 9.49936 29.6674 5.79523 25.405 3.96059H25.4065C25.3334 3.92873 25.2542 3.91127 25.1735 3.90982ZM13.8284 3.91417C13.7492 3.91706 13.6715 3.93444 13.5984 3.9663C9.33725 5.80246 6.29058 9.50247 5.44662 13.8728H5.44815C5.41768 14.0248 5.45272 14.1812 5.54565 14.3072C5.63705 14.4346 5.77873 14.5215 5.93869 14.549C6.26927 14.6041 6.5846 14.3955 6.64556 14.0828C7.41795 10.0847 10.2043 6.69896 14.1027 5.01928V5.01783C14.4074 4.88605 14.5415 4.54287 14.4028 4.25324C14.3373 4.11277 14.2139 4.00272 14.0616 3.94914V3.94769C13.9869 3.92308 13.9076 3.91127 13.8284 3.91417ZM19.5002 7.54453C22.4114 7.54453 24.73 9.73112 24.73 12.4609V13.2819H14.2734V12.4609C14.2734 9.73123 16.589 7.54453 19.5002 7.54453ZM6.45042 15.5626C4.25059 15.5626 2.44669 17.254 2.44669 19.3335C2.44669 20.5774 3.09109 21.6822 4.08133 22.3701C1.69259 23.2578 0 25.4516 0 28.0204V29.4193C0 29.5728 0.0639831 29.7219 0.178241 29.8305C0.294024 29.9392 0.449411 30.0014 0.612426 30H12.2894C12.4524 30.0014 12.6078 29.9392 12.722 29.8305C12.8378 29.7219 12.9018 29.5728 12.9018 29.4193V28.0204C12.9018 25.4515 11.2093 23.2576 8.82047 22.3686C9.80919 21.6808 10.4551 20.5759 10.4551 19.332C10.4551 17.2525 8.65136 15.5611 6.45138 15.5611L6.45042 15.5626ZM32.5546 15.5626C30.3547 15.5626 28.5508 17.254 28.5508 19.3335C28.5508 20.5774 29.1952 21.6822 30.1855 22.3701C27.7967 23.2592 26.1042 25.4531 26.1042 28.0219V29.4208V29.4193C26.1026 29.7393 26.3738 29.9986 26.7105 30H38.3937C38.7288 29.9986 39.0015 29.7393 39 29.4193V28.0205C39 25.4516 37.3105 23.2576 34.9233 22.3686C35.9121 21.6808 36.558 20.5759 36.558 19.332C36.558 17.2526 34.7558 15.5612 32.5558 15.5612L32.5546 15.5626ZM6.45042 16.7167C7.99824 16.7167 9.23524 17.8868 9.23524 19.3334C9.23524 20.7801 7.9982 21.9458 6.45042 21.9458C4.90263 21.9458 3.66712 20.7801 3.66712 19.3334C3.66712 17.8868 4.90263 16.7167 6.45042 16.7167ZM32.5546 16.7167C34.1024 16.7167 35.3379 17.8868 35.3379 19.3334C35.3379 20.7801 34.1024 21.9458 32.5546 21.9458C31.0068 21.9458 29.7697 20.7801 29.7697 19.3334C29.7697 17.8868 31.0068 16.7167 32.5546 16.7167ZM6.45042 23.1041C9.36168 23.1041 11.6819 25.2907 11.6819 28.0204V28.8415H1.22054V28.0204C1.22054 25.2908 3.5392 23.1041 6.45042 23.1041ZM32.5546 23.1041C35.4658 23.1041 37.7813 25.2907 37.7813 28.0204V28.8415H27.3231V28.0204C27.3231 25.2908 29.6433 23.1041 32.5546 23.1041ZM14.8935 27.9696H14.892C14.636 27.9711 14.409 28.1246 14.3222 28.3548C14.2095 28.6546 14.3755 28.9862 14.6909 29.0934C16.2356 29.6176 17.8596 29.884 19.5003 29.884C21.1396 29.884 22.7696 29.6176 24.3129 29.0934H24.3145C24.6313 28.9862 24.7959 28.6546 24.6831 28.3548C24.5704 28.0536 24.2215 27.8958 23.9046 28.0029C22.4924 28.4823 21.001 28.7255 19.5004 28.7255C17.9998 28.7255 16.5129 28.4823 15.1008 28.0029C15.0338 27.9812 14.9636 27.9696 14.8935 27.9696Z" fill="white"/>
</svg>
