<svg width="45" height="45" viewBox="0 0 45 45" fill="none" xmlns="http://www.w3.org/2000/svg">
<path fill-rule="evenodd" clip-rule="evenodd" d="M22.4993 5.375C12.6206 5.375 4.60156 13.3218 4.60156 23.1115C4.60156 32.9012 12.6206 40.848 22.4993 40.848C32.378 40.848 40.397 32.9012 40.397 23.1115C40.397 13.3218 32.378 5.375 22.4993 5.375ZM22.4993 6.64189C31.6719 6.64189 39.1186 14.0215 39.1186 23.1115C39.1186 32.2015 31.6719 39.5811 22.4993 39.5811C13.3267 39.5811 5.87997 32.2015 5.87997 23.1115C5.87997 14.0215 13.3267 6.64189 22.4993 6.64189ZM23.1385 26.2153C22.9308 26.2564 22.7182 26.2786 22.4993 26.2786C22.2803 26.2786 22.0678 26.2564 21.8601 26.2153V31.1482C21.8601 31.4966 22.1461 31.7817 22.4993 31.7817C22.8525 31.7817 23.1385 31.4966 23.1385 31.1482V26.2153ZM22.4993 20.5777C21.0883 20.5777 19.9425 21.7132 19.9425 23.1115C19.9425 24.5098 21.0883 25.6453 22.4993 25.6453C23.9103 25.6453 25.0561 24.5098 25.0561 23.1115C25.0561 21.7132 23.9103 20.5777 22.4993 20.5777ZM22.4993 21.8446C23.2056 21.8446 23.7777 22.4115 23.7777 23.1115C23.7777 23.8115 23.2056 24.3784 22.4993 24.3784C21.793 24.3784 21.2209 23.8115 21.2209 23.1115C21.2209 22.4115 21.793 21.8446 22.4993 21.8446ZM21.8601 20.0076C22.0678 19.9664 22.2803 19.9443 22.4993 19.9443C22.7182 19.9443 22.9308 19.9664 23.1385 20.0076V9.80924C23.1385 9.45926 22.8525 9.1758 22.4993 9.1758C22.1461 9.1758 21.8601 9.45926 21.8601 9.80924V20.0076Z" fill="white"/>
</svg>
